<?xml version="1.0" standalone="no"?>
<!DOCTYPE svg PUBLIC "-//W3C//DTD SVG 20010904//EN"
 "http://www.w3.org/TR/2001/REC-SVG-20010904/DTD/svg10.dtd">
<svg version="1.0" xmlns="http://www.w3.org/2000/svg"
 width="1200.000000pt" height="1600.000000pt" viewBox="0 0 1200.000000 1600.000000"
 preserveAspectRatio="xMidYMid meet">

<g transform="translate(0.000000,1600.000000) scale(0.100000,-0.100000)"
fill="#000000" stroke="none">
<path d="M9090 15960 c0 -36 -2 -40 -25 -40 -20 0 -25 -5 -25 -27 0 -26 0 -26
-20 -8 -20 18 -21 18 -32 -13 -13 -34 -28 -43 -28 -17 0 8 -4 15 -8 15 -15 0
-31 -22 -25 -35 2 -8 -7 -21 -21 -30 -14 -10 -26 -25 -26 -34 -1 -10 -6 -6
-16 12 -18 34 -31 34 -46 2 -6 -14 -17 -25 -24 -25 -7 0 -24 -11 -38 -25 -14
-14 -32 -25 -41 -25 -8 0 -15 -4 -15 -9 0 -6 -13 -18 -30 -28 -22 -13 -30 -25
-30 -45 0 -23 -4 -28 -24 -28 -13 0 -26 -7 -30 -15 -8 -21 -26 -19 -27 3 -1 9
-7 -3 -14 -28 -12 -44 -12 -44 -20 -17 -4 15 -11 27 -15 27 -12 0 -21 -45 -10
-48 18 -6 -1 -22 -26 -22 -13 0 -24 -4 -24 -10 0 -5 7 -10 15 -10 29 0 15 -17
-25 -30 -22 -7 -40 -17 -40 -23 0 -11 -59 -67 -71 -67 -5 0 -9 -6 -9 -14 0 -7
-11 -21 -25 -30 -14 -9 -25 -23 -25 -30 0 -7 -18 -25 -40 -40 -25 -16 -40 -34
-40 -46 0 -13 -10 -24 -25 -30 -13 -5 -30 -18 -37 -30 -7 -11 -19 -20 -27 -20
-11 0 -11 -3 0 -16 10 -13 10 -17 -2 -25 -11 -6 -15 -2 -17 19 l-4 27 -14 -34
c-18 -42 -18 -51 1 -51 8 0 15 -4 15 -10 0 -5 -9 -10 -20 -10 -11 0 -28 -9
-37 -20 -16 -19 -18 -19 -24 -3 -5 15 -9 12 -22 -14 -10 -18 -28 -45 -42 -60
-40 -46 -42 -48 -69 -99 -14 -27 -25 -42 -26 -34 0 12 -3 11 -14 -3 -18 -24
-95 -112 -140 -161 -20 -21 -36 -45 -36 -52 0 -8 -5 -14 -11 -14 -17 0 -38
-32 -39 -57 0 -14 -6 -23 -15 -23 -8 0 -15 -5 -15 -12 0 -6 -7 -19 -15 -28 -8
-9 -19 -34 -24 -56 -8 -35 -9 -36 -10 -10 -2 51 -10 23 -15 -52 -4 -47 -11
-79 -21 -89 -21 -20 -15 -46 13 -58 13 -6 22 -19 22 -32 0 -13 8 -24 20 -28
11 -3 20 -12 20 -18 0 -15 74 -40 78 -26 2 5 9 6 15 2 24 -15 77 -12 89 5 7
10 25 25 40 35 16 9 27 23 25 30 -1 7 11 13 29 15 23 2 50 21 98 68 36 35 66
71 66 79 0 8 9 15 20 15 11 0 20 4 20 9 0 5 14 22 30 38 17 15 30 34 30 41 0
21 42 72 60 72 8 0 24 16 34 35 10 19 43 60 73 92 83 88 83 89 83 107 0 9 11
28 25 42 14 14 25 27 25 30 0 3 20 25 43 49 40 40 42 44 23 48 -19 3 -19 4 5
14 29 13 69 58 69 79 0 8 9 13 23 11 15 -1 21 3 19 14 -1 9 4 19 13 23 8 3 15
15 15 26 0 11 7 23 15 26 10 4 15 20 15 45 0 21 5 39 10 39 6 0 10 -6 10 -12
1 -7 8 0 17 17 9 16 21 35 27 42 6 6 22 26 36 42 14 17 33 40 43 51 9 11 17
26 17 33 1 17 29 52 43 52 7 0 12 14 12 31 0 23 4 30 14 26 10 -4 11 1 6 18
-5 15 -4 20 4 16 12 -8 41 44 41 74 0 13 -8 24 -20 27 -38 10 -21 26 20 19 39
-6 40 -5 40 21 0 17 8 33 20 41 11 6 17 18 14 26 -3 9 5 21 20 31 14 10 26 24
26 31 0 8 10 14 25 14 25 0 30 10 26 58 -1 14 4 22 14 22 9 0 15 9 15 21 0 24
37 58 63 59 13 0 17 9 17 40 l0 40 -55 0 -55 0 0 -40z m-25 -160 c0 -7 -6 -15
-12 -17 -8 -3 -13 4 -13 17 0 13 5 20 13 18 6 -3 12 -11 12 -18z"/>
<path d="M7700 14030 c0 -5 7 -10 16 -10 8 0 12 5 9 10 -3 6 -10 10 -16 10 -5
0 -9 -4 -9 -10z"/>
<path d="M5010 13610 c-8 -4 -31 -11 -50 -15 -96 -20 -305 -192 -360 -296 -13
-24 -29 -55 -36 -69 -8 -14 -14 -36 -13 -50 0 -22 1 -23 8 -6 7 18 8 18 14 3
6 -16 9 -16 44 2 40 20 143 68 206 96 72 32 149 36 392 21 195 -12 313 -47
352 -104 35 -53 54 -110 31 -96 -8 5 -9 0 -6 -14 4 -12 2 -25 -4 -28 -27 -17
-40 -132 -19 -171 20 -36 29 -113 17 -146 -12 -34 -69 -97 -89 -98 -18 -1 -97
-61 -120 -91 -18 -24 -19 -32 -8 -105 6 -43 18 -141 25 -218 19 -200 2 -238
-136 -305 -84 -40 -101 -68 -79 -123 7 -18 16 -45 20 -61 5 -24 16 -32 66 -50
68 -25 150 -80 181 -123 11 -15 27 -52 34 -81 18 -70 5 -93 -85 -148 -51 -31
-73 -52 -96 -93 -33 -58 -32 -98 3 -156 10 -17 18 -49 18 -72 0 -59 -51 -114
-145 -158 -140 -64 -216 -79 -326 -61 -52 8 -48 14 -49 -89 0 -33 4 -61 10
-63 5 -2 10 -12 10 -22 0 -39 122 -172 494 -537 85 -84 167 -173 182 -198 51
-87 30 -164 -48 -186 -26 -6 -70 -33 -111 -67 -37 -32 -87 -72 -110 -90 -61
-48 -157 -139 -157 -149 1 -17 38 -52 80 -73 77 -39 144 -101 201 -185 31 -45
60 -92 64 -106 4 -13 15 -37 25 -54 10 -16 25 -60 34 -96 36 -147 11 -222 -76
-222 -24 0 -50 3 -56 7 -14 8 -72 119 -72 137 0 23 -54 146 -83 187 -39 58
-81 75 -183 76 -92 0 -123 -13 -150 -67 -9 -17 -20 -34 -25 -37 -4 -3 -12 -17
-18 -30 -6 -15 -10 -18 -10 -9 -1 12 -11 15 -48 14 -72 -3 -104 10 -140 60
-18 24 -33 49 -33 55 0 5 -4 10 -10 10 -5 0 -21 18 -35 40 -23 37 -55 54 -55
30 0 -5 -5 -10 -11 -10 -7 0 -17 -7 -23 -15 -18 -25 -65 -28 -110 -6 -48 24
-76 45 -76 57 0 5 -9 15 -20 22 -12 7 -19 16 -16 20 13 22 -16 32 -102 36 -79
3 -92 1 -93 -13 -3 -35 2 -77 16 -125 8 -28 16 -88 17 -133 2 -46 7 -83 12
-83 5 0 3 -7 -4 -15 -7 -8 -10 -22 -6 -30 3 -10 -3 -17 -19 -21 -14 -3 -22
-10 -19 -15 3 -6 -10 -25 -30 -43 -20 -18 -36 -38 -36 -44 0 -6 -9 -20 -20
-30 -18 -16 -19 -24 -10 -78 15 -88 13 -100 -19 -133 -24 -25 -29 -38 -29 -76
1 -25 7 -50 14 -56 8 -6 11 -15 9 -20 -3 -4 5 -20 17 -34 13 -15 34 -46 48
-69 41 -70 77 -119 111 -151 17 -16 44 -50 60 -75 15 -25 41 -57 56 -71 36
-33 170 -132 203 -149 50 -27 409 -46 590 -32 78 6 191 8 267 4 113 -7 137
-11 160 -29 16 -12 26 -27 24 -35 -2 -7 -3 -33 -3 -58 1 -25 -2 -40 -6 -35 -7
11 -82 15 -82 5 0 -4 5 -11 11 -17 15 -15 3 -33 -22 -33 -12 0 -19 -7 -19 -20
0 -13 -7 -20 -20 -20 -11 0 -20 -5 -20 -11 0 -7 -7 -17 -15 -23 -10 -7 -16
-30 -17 -64 -1 -28 -5 -52 -9 -52 -4 0 -9 -12 -11 -27 -3 -16 -7 -35 -9 -43
-3 -11 3 -14 25 -11 26 2 45 -11 46 -31 0 -4 -11 -19 -25 -34 -27 -29 -32 -44
-14 -44 7 0 9 -10 7 -25 -4 -16 -1 -22 6 -17 6 3 17 7 25 9 11 1 11 -1 -1 -13
-23 -23 -12 -62 17 -58 13 1 28 5 34 8 5 4 12 2 16 -4 3 -5 -3 -15 -15 -22
-26 -16 -26 -28 0 -28 22 0 27 -16 8 -22 -19 -7 -1 -38 22 -38 23 0 24 -4 9
-31 -5 -11 -15 -16 -21 -13 -7 4 -8 3 -4 -4 4 -7 14 -12 22 -12 12 0 13 -14 9
-77 -7 -94 -7 -80 3 -181 4 -46 5 -88 2 -93 -7 -11 -4 -284 3 -296 7 -11 0
-81 -10 -96 -11 -18 -13 -34 -17 -134 -2 -69 -7 -95 -19 -108 -24 -23 -21 -35
8 -35 29 0 31 -25 5 -48 -13 -11 -12 -15 8 -28 25 -19 31 -78 8 -91 -8 -4 -15
-17 -17 -28 -5 -27 -47 -33 -55 -8 -3 10 -10 26 -15 35 -5 10 -9 26 -9 37 0
10 -9 30 -20 44 -11 14 -20 34 -20 44 0 10 -5 24 -11 30 -6 6 -17 40 -24 75
-7 34 -20 99 -29 143 -10 44 -19 91 -21 105 -2 14 -16 86 -30 160 -20 104 -27
174 -29 305 -3 129 -9 193 -26 265 -12 52 -20 113 -18 136 3 36 1 40 -16 36
-15 -4 -18 -1 -13 11 3 8 -1 21 -9 27 -17 15 -18 42 -2 58 9 9 7 12 -10 12
-25 0 -26 1 -11 34 7 14 9 32 5 42 -6 16 -8 16 -20 -2 -21 -28 -27 -14 -14 29
13 43 3 61 -18 33 -7 -11 -16 -17 -20 -14 -6 7 -8 56 -3 78 3 11 -3 14 -18 12
-13 -2 -23 0 -23 5 0 13 -58 35 -71 27 -7 -4 -9 -3 -5 4 3 6 2 13 -4 17 -5 3
-10 17 -10 31 0 18 -5 24 -17 22 -11 -2 -24 11 -37 36 -12 22 -33 52 -48 69
-16 16 -28 32 -28 36 0 4 -17 8 -38 9 -50 2 -110 -49 -119 -102 -3 -20 -10
-36 -15 -36 -5 0 -7 -4 -4 -9 3 -5 -1 -25 -9 -45 -19 -44 -19 -46 1 -46 11 0
14 -5 10 -16 -3 -9 -6 -20 -6 -25 0 -5 -10 -9 -22 -9 -18 0 -20 -2 -9 -9 12
-8 12 -12 2 -24 -10 -13 -9 -17 5 -25 13 -7 17 -26 18 -90 1 -68 4 -82 18 -85
14 -4 17 -14 14 -45 -2 -21 -6 -44 -10 -51 -13 -20 4 -72 22 -69 10 2 17 -4
18 -12 0 -8 6 -27 12 -41 6 -14 9 -48 7 -75 -3 -30 -1 -40 3 -25 7 22 8 23 22
6 8 -10 13 -27 12 -39 -3 -25 28 -66 50 -66 22 0 42 -27 42 -58 1 -15 4 -32 9
-39 4 -7 0 -13 -10 -15 -14 -3 -9 -12 25 -46 44 -44 50 -57 30 -66 -10 -5 -10
-7 0 -12 6 -3 12 -21 12 -40 0 -21 -4 -33 -10 -29 -5 3 -10 18 -10 32 0 21 -2
24 -15 13 -10 -8 -15 -30 -15 -61 0 -27 -4 -49 -10 -49 -5 0 -10 7 -10 15 0 8
-4 15 -10 15 -5 0 -10 -6 -10 -14 0 -8 -3 -21 -6 -29 -3 -8 2 -22 11 -31 14
-13 15 -19 5 -31 -7 -9 -14 -25 -15 -38 -5 -50 -6 -52 -17 -27 -6 14 -12 35
-13 48 0 12 -5 21 -10 20 -11 -3 -10 -8 1 -75 4 -28 2 -48 -5 -57 -6 -8 -14
-24 -16 -36 -2 -13 -11 -31 -20 -40 -14 -16 -14 -18 1 -24 11 -4 14 -12 8 -24
-4 -9 -8 -29 -9 -44 -1 -15 -7 -33 -14 -41 -9 -12 -8 -16 5 -21 9 -3 19 -4 24
-1 4 3 10 -2 14 -10 3 -9 0 -15 -10 -15 -12 0 -14 -12 -9 -69 3 -42 1 -72 -5
-76 -5 -3 -10 -19 -10 -36 0 -22 5 -29 19 -29 26 0 36 -19 18 -33 -8 -7 -17
-21 -19 -32 -4 -18 0 -20 51 -18 31 2 50 0 44 -3 -7 -3 -13 -12 -13 -20 0 -8
-11 -20 -25 -26 -14 -6 -25 -19 -25 -29 0 -10 -7 -22 -16 -27 -10 -6 5 -7 40
-4 38 3 56 1 56 -7 0 -6 -7 -11 -16 -11 -10 0 -13 -6 -9 -19 3 -12 0 -21 -10
-25 -8 -3 -15 -12 -15 -20 0 -8 -11 -23 -25 -34 -14 -11 -25 -28 -25 -39 0
-24 -35 -54 -55 -46 -11 4 -18 -1 -22 -16 -4 -16 -13 -21 -39 -21 -21 0 -34
-5 -34 -12 0 -7 -11 1 -24 17 -35 43 -81 191 -101 325 -29 195 -56 341 -82
445 -19 78 -27 141 -33 285 -10 223 -24 320 -56 381 -13 26 -24 52 -24 58 0 7
-12 23 -27 37 l-28 25 25 -6 c21 -5 19 -1 -17 30 -37 31 -41 40 -38 69 4 27 0
35 -20 46 -19 10 -22 16 -13 22 10 7 8 13 -9 25 -18 12 -21 19 -12 35 8 15 7
24 -8 40 -13 15 -15 22 -5 25 17 6 15 23 -3 23 -9 0 -20 11 -25 25 -5 14 -13
25 -17 25 -5 0 -14 14 -21 30 -8 16 -20 30 -27 30 -18 0 -65 -61 -65 -84 0 -9
-9 -35 -20 -58 -11 -22 -17 -45 -13 -50 3 -6 -1 -14 -8 -19 -11 -7 -12 -12 -2
-28 10 -16 9 -20 -9 -24 -18 -5 -19 -8 -8 -22 11 -13 10 -15 -4 -9 -18 7 -22
-11 -6 -21 8 -5 7 -11 -1 -21 -6 -8 -8 -14 -3 -14 5 0 2 -4 -6 -10 -12 -8 -12
-10 3 -16 22 -8 22 -43 1 -51 -13 -5 -10 -9 12 -19 28 -12 29 -13 7 -19 -27
-9 -30 -30 -5 -44 16 -10 16 -12 0 -25 -25 -18 -23 -25 11 -37 21 -8 28 -15
24 -29 -4 -14 2 -23 21 -31 31 -14 25 -29 -12 -29 -21 0 -24 -2 -12 -10 8 -5
26 -10 39 -10 20 0 23 -4 19 -31 -4 -22 0 -33 14 -40 15 -8 17 -17 12 -49 -6
-38 -5 -41 27 -52 32 -11 33 -11 8 -20 -21 -8 -22 -11 -8 -21 10 -7 15 -23 13
-40 -1 -16 2 -27 9 -27 7 0 4 -7 -5 -14 -22 -16 -23 -30 -3 -22 9 3 15 0 15
-9 0 -8 -5 -15 -11 -15 -8 0 -8 -4 -2 -12 11 -15 15 -58 5 -57 -4 1 -25 1 -47
0 l-40 -1 48 -27 c37 -21 44 -29 32 -35 -8 -5 -15 -16 -15 -24 0 -8 -10 -34
-21 -59 -12 -25 -19 -54 -16 -65 4 -15 -2 -20 -24 -25 -16 -4 -32 -11 -35 -17
-5 -7 0 -9 12 -5 171 53 164 53 179 -8 15 -56 12 -65 -16 -65 -10 0 -19 -4
-19 -10 0 -5 -6 -10 -14 -10 -8 0 -16 16 -20 42 -8 48 -14 60 -26 53 -5 -3 -2
-22 6 -41 8 -20 13 -43 9 -52 -9 -25 17 -33 40 -12 26 24 69 30 72 10 4 -21
-121 -75 -125 -54 -4 15 -31 12 -91 -12 -18 -8 -45 -14 -60 -14 -26 0 -69 -20
-43 -20 20 0 13 -20 -10 -29 -21 -8 -20 -9 12 -15 46 -9 100 -38 100 -52 0 -7
7 -15 16 -18 13 -5 15 -15 10 -51 -5 -30 -4 -45 4 -45 6 0 4 -10 -5 -24 -14
-21 -14 -24 0 -29 19 -8 19 -27 0 -41 -25 -19 -20 -140 7 -157 18 -12 28 -11
28 1 0 6 7 10 15 10 21 0 19 -19 -2 -27 -15 -6 -53 -40 -53 -48 0 -2 7 -2 16
-1 9 0 19 -5 21 -11 3 -7 -2 -13 -11 -13 -21 0 -20 -4 10 -50 16 -24 53 -55
95 -81 l70 -42 82 6 c160 12 261 57 341 152 42 51 56 54 139 25 71 -25 122
-25 223 -1 43 11 108 22 144 25 35 3 69 11 74 16 13 13 36 13 36 0 0 -5 -7
-10 -15 -10 -8 0 -19 -9 -25 -19 -11 -22 0 -57 32 -100 10 -13 18 -39 18 -57
0 -37 37 -74 75 -74 16 0 30 -11 44 -35 17 -29 26 -35 54 -35 19 0 40 -7 47
-15 7 -9 15 -50 17 -93 6 -104 15 -125 73 -156 50 -27 63 -50 53 -97 -8 -43 2
-70 47 -118 22 -24 49 -61 59 -82 18 -36 18 -40 3 -49 -10 -5 -12 -10 -5 -10
21 0 -20 -63 -51 -78 -42 -21 -139 -21 -160 0 -19 19 -71 24 -81 8 -9 -15 -43
-12 -75 7 -27 15 -30 15 -66 -8 -22 -12 -45 -31 -52 -41 -7 -10 -39 -25 -70
-34 -86 -24 -138 -61 -162 -114 -11 -25 -36 -72 -55 -105 -97 -165 -89 -193
54 -209 24 -2 56 -14 70 -25 49 -40 73 -45 211 -46 176 -2 221 -11 358 -72 44
-19 57 -31 72 -66 23 -50 25 -94 6 -162 -12 -47 -79 -184 -95 -195 -7 -5 -130
-181 -142 -203 -30 -56 -34 -76 -31 -175 1 -58 7 -111 13 -118 6 -8 14 -42 16
-76 3 -35 10 -74 16 -88 6 -14 11 -33 12 -43 2 -10 7 -23 14 -30 8 -8 11 -5
11 11 0 12 4 22 9 22 5 0 11 8 14 17 5 23 12 -6 25 -101 11 -87 -4 -132 -68
-206 -50 -58 -103 -93 -176 -115 -57 -17 -267 -20 -341 -5 -26 5 -98 11 -159
13 -88 2 -118 7 -140 22 -31 20 -62 28 -203 51 -92 15 -139 31 -174 63 -13 11
-41 16 -92 18 -85 2 -122 16 -207 76 -35 24 -81 50 -103 57 -22 7 -88 37 -147
66 -59 30 -117 54 -128 54 -26 0 -39 -34 -29 -74 23 -85 49 -222 49 -255 0
-20 6 -46 14 -56 8 -11 12 -24 10 -30 -3 -6 2 -57 11 -113 18 -121 19 -211 4
-249 -50 -121 -94 -183 -136 -189 -10 -2 -47 -10 -83 -18 -36 -9 -111 -16
-167 -16 -57 0 -103 -4 -103 -9 0 -7 -42 -2 -135 17 -39 9 -105 59 -105 81 0
6 -8 11 -18 11 -9 0 -35 12 -57 27 -40 28 -68 31 -94 10 -8 -7 -22 -11 -31 -9
-10 2 -20 -4 -23 -13 -4 -8 -13 -15 -22 -15 -8 0 -23 -8 -33 -18 -29 -28 -86
-76 -116 -97 -16 -11 -36 -28 -45 -37 -8 -10 -19 -18 -24 -18 -8 0 -24 -12
-55 -41 -32 -30 -163 -71 -242 -75 -41 -2 -99 -11 -127 -20 -29 -9 -58 -14
-65 -12 -7 3 -28 -3 -47 -13 -20 -10 -37 -13 -39 -8 -2 5 -11 5 -22 -1 -11 -6
-56 -17 -102 -26 -46 -9 -87 -19 -93 -24 -21 -16 -123 -3 -152 19 -21 17 -38
22 -78 20 -75 -4 -131 -51 -178 -152 -20 -43 -37 -85 -37 -94 0 -9 -11 -64
-24 -122 -27 -117 -48 -218 -51 -241 -5 -41 -30 -143 -52 -213 -13 -44 -22
-81 -19 -85 3 -3 2 -10 -2 -16 -13 -17 -62 -197 -62 -225 0 -7 44 -11 138 -11
l137 0 40 67 c26 43 63 86 105 121 36 30 79 66 95 80 17 14 59 48 95 75 36 27
70 54 75 60 6 7 18 17 26 22 9 6 40 27 70 47 98 68 231 88 314 48 50 -24 105
-89 129 -154 16 -43 18 -66 12 -185 -4 -75 -10 -146 -13 -158 l-5 -23 1720 0
1720 0 10 46 c8 35 7 56 -4 87 -19 52 -18 64 7 98 22 31 27 70 32 259 2 52 8
104 15 116 6 11 13 72 16 135 3 63 9 137 12 166 4 29 1 73 -6 100 -11 43 -10
54 10 103 17 43 20 66 15 110 -3 31 -1 79 6 110 7 30 12 69 11 85 -5 132 -12
247 -22 345 -6 63 -15 165 -20 225 -5 61 -12 127 -15 147 -6 28 -3 44 9 64 10
14 19 42 21 62 14 131 41 225 82 286 15 22 31 43 35 46 3 3 15 28 26 55 14 37
27 54 50 65 40 19 46 38 28 82 -13 30 -13 38 -1 55 18 26 84 40 96 21 5 -7 9
-27 9 -43 0 -18 10 -41 25 -57 33 -36 46 -71 39 -107 -5 -25 -1 -32 35 -57 23
-17 44 -40 47 -54 17 -80 26 -101 51 -113 23 -10 28 -8 52 21 18 22 35 32 53
32 15 0 49 5 76 10 41 9 51 16 65 45 14 29 22 35 47 35 17 0 41 -7 53 -14 12
-8 40 -18 62 -21 33 -6 47 -2 78 19 48 33 59 33 119 -4 26 -16 57 -30 68 -30
22 0 70 -20 70 -29 0 -3 -4 -20 -9 -37 -12 -42 2 -64 42 -64 18 0 38 5 45 12
9 9 15 9 24 0 9 -9 8 -12 -6 -12 -16 0 -16 -1 -2 -16 11 -10 16 -34 16 -70 0
-72 15 -88 74 -80 32 5 46 3 56 -9 8 -10 29 -15 61 -15 64 0 93 -27 77 -72 -8
-24 -8 -32 3 -39 21 -13 46 -11 63 6 26 26 59 17 106 -30 42 -43 44 -48 47
-108 1 -34 3 -71 5 -82 2 -17 -3 -20 -34 -21 -49 -2 -60 12 -47 61 8 29 8 40
-3 46 -34 22 -63 -5 -53 -50 5 -25 2 -32 -22 -48 -35 -22 -43 -33 -43 -60 0
-19 5 -23 33 -23 17 0 39 4 46 9 9 6 22 6 34 -1 23 -12 100 7 123 29 30 31 97
-48 87 -103 l-6 -29 25 23 c51 46 79 18 46 -47 -21 -44 -63 -75 -116 -86 -48
-10 -52 -43 -13 -120 17 -35 31 -70 31 -77 0 -8 5 -19 12 -26 21 -21 46 -13
60 18 15 36 53 41 86 11 29 -24 28 -30 -8 -70 -36 -39 -35 -52 8 -65 25 -7 36
-5 51 8 17 16 22 16 48 2 48 -24 57 -40 40 -73 -10 -18 -13 -44 -10 -73 4 -38
1 -49 -21 -72 -19 -22 -34 -28 -64 -28 -25 0 -49 -7 -63 -19 l-24 -20 27 -25
c15 -15 32 -26 38 -26 5 0 10 -4 10 -9 0 -5 20 -20 44 -34 41 -23 44 -23 55
-5 23 37 91 9 91 -38 0 -40 -15 -47 -51 -25 -19 12 -39 21 -45 21 -6 0 -21
-23 -33 -51 -12 -27 -30 -53 -39 -57 -28 -10 -52 -45 -47 -69 7 -32 -45 -123
-109 -187 -31 -31 -56 -61 -56 -65 0 -5 -7 -14 -14 -21 -8 -6 -16 -33 -18 -58
-2 -38 -8 -49 -25 -57 -13 -5 -23 -15 -23 -22 0 -8 -13 -13 -35 -13 -19 0 -35
5 -35 10 0 6 -12 10 -28 10 -33 0 -64 -33 -60 -63 4 -30 37 -33 87 -8 22 12
47 18 56 15 22 -9 95 16 95 32 0 20 30 25 56 8 13 -9 24 -19 25 -23 6 -49 2
-78 -13 -93 -10 -10 -18 -28 -18 -39 0 -12 -17 -37 -37 -56 l-38 -34 205 3
c153 3 213 7 238 18 31 14 35 13 46 -3 12 -16 45 -17 433 -17 340 0 430 3 476
15 75 19 126 19 133 0 5 -13 176 -15 1450 -15 l1444 0 0 2255 c0 1240 -3 2255
-7 2255 -13 -1 -53 -37 -53 -48 0 -5 -6 -14 -13 -20 -16 -13 -57 11 -57 32 0
21 -27 40 -33 24 -3 -9 -11 -5 -23 12 -11 14 -19 27 -20 30 -4 24 -23 44 -55
61 -22 11 -39 23 -39 28 0 5 -13 14 -29 21 -17 7 -32 22 -35 36 -4 13 -24 40
-46 60 -50 47 -150 223 -199 354 -8 19 -25 60 -38 90 -14 30 -30 66 -35 80
-24 60 -94 216 -108 242 -6 10 -10 24 -10 32 0 7 -25 67 -56 132 -30 66 -62
133 -69 149 -17 37 -67 148 -110 240 -56 122 -160 327 -201 400 -68 119 -96
199 -108 310 -20 175 -66 302 -129 362 -18 17 -62 48 -98 70 -108 64 -143 100
-167 168 -18 55 -21 94 -27 445 -3 212 -8 423 -10 470 -16 389 -25 855 -31
1585 -2 352 -7 656 -9 675 -2 19 -6 332 -10 695 -3 363 -8 732 -10 820 -3 88
-7 248 -10 355 -2 107 -8 240 -12 295 -7 93 -10 103 -41 141 -20 25 -48 46
-72 54 -43 14 -102 7 -120 -15 -7 -8 -21 -15 -31 -15 -11 0 -19 -3 -19 -8 0
-4 -39 -27 -87 -52 -49 -24 -89 -48 -91 -52 -2 -4 -11 -8 -21 -8 -9 0 -21 -4
-26 -9 -11 -10 -173 -95 -435 -227 -91 -46 -170 -88 -177 -93 -6 -6 -38 -23
-70 -37 -32 -15 -65 -31 -73 -35 -8 -5 -25 -13 -37 -18 -11 -6 -24 -15 -28
-20 -3 -6 -15 -11 -26 -11 -10 0 -38 -13 -61 -30 -22 -16 -49 -30 -59 -30 -9
0 -19 -3 -21 -7 -5 -13 -142 -85 -215 -115 -18 -7 -33 -16 -33 -20 0 -5 -6 -8
-14 -8 -13 0 -108 -67 -114 -81 -1 -3 -32 -50 -67 -103 -36 -54 -65 -104 -65
-111 0 -7 -6 -27 -13 -45 -12 -27 -12 -38 0 -72 7 -21 22 -51 32 -66 26 -37
45 -124 38 -175 -3 -23 -4 -36 -1 -29 10 22 23 12 30 -23 6 -32 9 -35 41 -35
l35 0 -3 -46 c-2 -34 1 -48 13 -55 21 -12 37 9 17 22 -19 11 4 34 25 26 20 -8
21 -51 1 -67 -8 -7 -15 -19 -15 -26 0 -18 46 -19 53 -1 3 6 6 -5 6 -25 1 -20
4 -43 7 -52 5 -12 0 -16 -17 -16 -22 -1 -23 -2 -6 -14 9 -7 17 -20 17 -29 0
-8 -8 -18 -17 -22 -17 -7 -16 -8 2 -15 11 -5 14 -9 7 -9 -17 -1 -72 31 -72 41
0 4 -18 8 -39 8 -31 0 -41 4 -46 20 -7 21 -39 27 -50 10 -3 -5 -14 -10 -24
-10 -10 0 -29 -9 -43 -19 -13 -11 -41 -22 -61 -26 -22 -4 -37 -13 -37 -21 0
-8 -4 -14 -9 -14 -5 0 -16 -17 -25 -37 -22 -51 -63 -123 -81 -143 -7 -8 -33
-21 -57 -28 -37 -11 -49 -11 -80 2 -46 19 -53 31 -53 81 0 38 -1 40 -29 37
-22 -3 -28 0 -23 11 3 8 -4 34 -15 56 -17 35 -25 42 -47 39 -24 -3 -27 -8 -32
-58 -7 -68 -35 -115 -90 -152 -36 -24 -53 -28 -118 -30 -124 -3 -151 1 -195
30 -31 21 -45 40 -64 90 -13 35 -30 62 -38 62 -20 0 -28 -44 -16 -93 12 -49 3
-111 -22 -150 -12 -17 -53 -44 -111 -72 -50 -25 -95 -45 -98 -45 -4 0 -7 8 -8
18 0 10 -3 12 -6 5 -7 -19 -38 -16 -79 6 -43 23 -94 67 -94 81 0 6 -11 10 -25
10 -18 0 -29 -9 -44 -38 -13 -25 -16 -43 -10 -53 5 -8 9 -32 9 -55 0 -22 9
-58 19 -80 29 -60 34 -89 21 -128 -13 -40 -71 -96 -100 -96 -11 0 -20 -5 -20
-11 0 -6 -20 -9 -52 -7 l-52 3 -33 59 c-18 32 -31 62 -28 66 3 4 -2 11 -11 14
-10 4 -13 13 -9 27 5 15 2 22 -14 26 -12 3 -21 12 -21 20 0 8 -8 13 -17 11
-11 -2 -19 5 -21 17 -2 11 -10 25 -19 32 -23 18 -33 78 -33 213 0 198 37 354
131 548 34 70 65 138 69 152 19 65 -28 469 -60 515 -19 27 -50 160 -50 212 0
67 -24 272 -44 383 -8 41 -18 113 -22 160 -8 102 -20 128 -114 245 -40 50 -76
100 -81 113 -5 13 -20 47 -34 76 -14 29 -25 59 -25 66 0 56 -158 244 -268 316
-85 57 -127 64 -402 68 -135 2 -252 1 -260 -4z m866 -1489 c36 -10 94 -61 99
-87 2 -10 4 -19 5 -19 1 0 3 -12 5 -26 9 -65 -63 -113 -147 -99 -48 9 -125 57
-146 92 -14 23 -14 32 -2 67 22 69 97 98 186 72z m1589 -1855 c35 -13 61 -30
111 -73 95 -81 202 -162 243 -182 22 -12 41 -28 41 -37 0 -26 -20 -54 -38 -54
-10 0 -22 -4 -27 -8 -6 -4 -37 -16 -70 -27 -33 -10 -67 -25 -76 -32 -8 -7 -21
-13 -29 -13 -17 0 -68 -54 -80 -86 -12 -29 -8 -61 18 -169 22 -86 22 -89 58
-182 27 -70 30 -119 10 -166 -21 -50 -104 -121 -171 -146 -68 -26 -85 -37 -85
-58 0 -16 39 -52 57 -53 6 0 26 -12 43 -27 22 -18 30 -32 26 -46 -11 -45 18
-81 99 -121 42 -22 79 -45 82 -53 3 -7 11 -13 18 -13 18 0 45 -44 45 -74 0
-48 -67 -100 -196 -152 -12 -5 -41 -26 -64 -47 -40 -37 -41 -39 -26 -63 9 -13
21 -24 26 -24 5 0 36 -13 69 -29 32 -15 70 -31 83 -34 27 -7 98 -74 98 -93 0
-23 -24 -68 -44 -84 -11 -8 -41 -27 -68 -42 -26 -15 -44 -29 -39 -33 5 -3 40
-9 78 -14 69 -9 193 -63 193 -85 0 -6 -5 -5 -12 2 -19 19 -24 14 -24 -20 0
-50 -14 -95 -24 -79 -5 9 -12 1 -20 -25 -7 -22 -15 -43 -19 -49 -3 -5 -6 -14
-6 -20 0 -5 -9 -36 -20 -68 l-19 -57 22 -30 c23 -31 27 -45 15 -53 -5 -2 -3
-2 4 -1 13 3 29 -58 19 -75 -8 -12 33 -53 45 -45 13 8 20 -56 16 -151 -3 -54
-9 -91 -16 -93 -6 -2 -10 -18 -10 -35 l1 -32 7 30 c11 51 22 2 12 -52 -6 -31
-6 -52 1 -60 6 -8 8 -37 4 -75 -4 -34 -9 -91 -11 -126 -3 -36 -10 -71 -17 -80
-7 -8 -13 -25 -14 -36 -2 -63 -5 -76 -17 -76 -9 0 -12 -11 -11 -35 2 -25 -1
-35 -11 -35 -8 0 -16 -3 -16 -7 -1 -5 -3 -23 -5 -42 -2 -19 -11 -39 -19 -45
-8 -6 -13 -23 -12 -41 3 -22 -3 -36 -20 -50 -16 -13 -25 -31 -25 -52 -1 -22
-7 -34 -20 -38 -11 -4 -18 -16 -18 -30 0 -13 -5 -27 -11 -31 -6 -3 -9 -17 -6
-30 2 -13 -1 -22 -6 -21 -6 1 -16 -44 -23 -108 -11 -95 -11 -112 2 -126 16
-18 9 -49 -12 -49 -7 0 -21 -11 -30 -25 -9 -14 -23 -25 -30 -25 -8 0 -31 -15
-52 -34 -52 -47 -122 -50 -150 -5 -7 10 -21 56 -31 102 -18 75 -19 116 -16
497 3 284 9 444 18 506 12 79 12 101 0 155 -8 35 -17 82 -20 104 -3 22 -12 46
-20 54 -8 7 -17 26 -20 42 -3 16 -10 29 -15 29 -5 0 -6 -9 -3 -21 5 -16 3 -20
-12 -17 -22 3 -54 -27 -72 -69 -7 -18 -18 -30 -25 -27 -18 7 -56 -79 -56 -127
0 -25 -6 -32 -47 -50 -37 -16 -48 -26 -49 -45 -1 -13 3 -24 10 -24 6 0 -5 -14
-24 -30 -27 -23 -43 -30 -70 -28 -34 3 -35 2 -36 -32 -1 -51 -3 -57 -14 -40
-8 12 -10 10 -10 -9 0 -14 -7 -33 -17 -43 -15 -17 -15 -20 4 -41 29 -32 95
-135 115 -179 17 -38 15 -108 -4 -108 -5 0 -8 -8 -7 -17 4 -21 -18 -65 -38
-76 -12 -7 -11 -11 4 -23 17 -13 17 -15 0 -28 -13 -10 -15 -21 -11 -45 6 -29
38 -58 57 -53 13 4 8 -6 -17 -32 -13 -15 -31 -26 -40 -26 -9 0 -16 -7 -16 -15
0 -9 -8 -18 -17 -22 -10 -3 -33 -22 -51 -42 -22 -24 -42 -36 -60 -36 -20 0
-26 -4 -24 -17 3 -21 -34 -26 -41 -5 -3 9 -7 9 -18 0 -19 -16 -32 -6 -57 44
-41 80 -55 182 -49 368 5 170 18 258 43 305 7 14 15 38 19 53 3 15 9 25 14 23
5 -3 15 2 22 11 13 15 11 16 -16 10 -16 -3 -24 -4 -17 -1 6 3 9 11 6 16 -4 7
-2 8 4 4 7 -4 12 -2 12 4 0 5 15 19 33 31 35 22 39 22 -50 3 -25 -5 -26 -4
-11 8 15 11 48 94 48 121 0 4 -11 5 -23 1 -22 -5 -25 0 -40 53 -9 32 -24 114
-33 183 -9 69 -23 140 -30 159 -8 18 -14 47 -14 63 0 42 -18 72 -34 58 -10 -8
-15 -5 -20 12 -5 14 -9 18 -13 11 -8 -21 -20 -15 -42 23 -30 51 -56 43 -56
-16 0 -37 -3 -45 -17 -44 -21 2 -24 -14 -4 -22 10 -4 12 -13 7 -32 -7 -24 -7
-78 0 -92 6 -14 3 -46 -6 -52 -6 -5 -3 -8 6 -8 17 0 33 -26 24 -40 -3 -4 0
-22 6 -39 8 -23 8 -35 0 -45 -8 -10 -9 -15 -1 -18 12 -4 14 -26 7 -73 -2 -16
-1 -40 4 -52 6 -15 4 -27 -6 -37 -8 -8 -15 -20 -15 -26 0 -6 -9 -20 -20 -32
-11 -12 -21 -31 -22 -42 0 -12 -2 -26 -2 -32 -1 -6 -8 -23 -15 -38 -11 -20
-12 -31 -3 -51 9 -20 8 -26 -6 -35 -11 -6 -13 -12 -6 -17 6 -5 9 -21 8 -38 -1
-16 -3 -36 -3 -44 -1 -8 -7 -11 -17 -7 -11 4 -14 1 -12 -12 2 -9 10 -16 16
-15 17 4 15 -5 -8 -30 -12 -12 -18 -28 -14 -37 4 -8 6 -22 6 -31 -1 -23 -45
-65 -75 -73 -15 -3 -31 -18 -39 -36 -9 -20 -20 -30 -35 -30 -12 0 -25 -5 -28
-10 -4 -6 -10 -8 -14 -6 -4 3 -14 -6 -21 -20 -8 -13 -25 -27 -39 -31 -50 -12
-118 101 -140 235 -6 32 -8 171 -5 317 6 256 4 280 -30 505 -7 47 -10 90 -6
95 4 6 21 52 39 102 61 180 149 289 281 352 53 25 61 26 214 24 128 -2 176 1
245 17 212 47 232 50 373 50 142 0 297 13 338 28 20 7 17 12 -35 67 -109 116
-121 131 -174 207 -109 158 -107 225 10 309 104 74 118 88 125 125 5 25 1 41
-12 60 -63 89 -64 91 -34 185 l20 63 -24 24 c-20 21 -26 22 -46 12 -13 -7 -35
-27 -49 -44 -14 -17 -67 -71 -117 -121 -96 -94 -124 -135 -124 -182 0 -24 17
-110 31 -163 5 -17 -32 -15 -42 2 -4 5 -17 15 -29 21 -26 14 -27 15 -74 117
-43 95 -103 297 -111 375 -12 117 29 212 102 236 21 6 76 30 123 53 l85 41
132 -3 131 -2 32 32 c50 49 73 111 74 197 1 69 -1 75 -27 94 -21 16 -40 21
-85 19 -67 -1 -113 11 -137 38 -30 33 -69 26 -106 -20 -18 -21 -39 -42 -47
-45 -22 -8 -52 4 -52 22 0 8 -9 26 -20 40 -27 34 -25 81 3 117 19 23 33 30 69
32 127 7 171 36 391 261 103 106 146 125 222 99z m-1014 -188 c18 -43 15 -141
-5 -169 -18 -26 -58 -33 -106 -17 -54 16 -70 36 -70 82 0 66 10 85 49 103 92
43 115 43 132 1z m509 -463 c0 -8 -4 -15 -10 -15 -5 0 -10 7 -10 15 0 8 5 15
10 15 6 0 10 -7 10 -15z m1129 -125 c15 0 48 -14 74 -31 36 -24 49 -40 62 -79
23 -69 6 -150 -39 -186 -17 -13 -36 -28 -42 -33 -39 -32 -140 -29 -227 6 -107
43 -149 74 -183 136 -13 24 -14 37 -4 75 22 92 45 106 189 113 64 3 122 4 129
2 8 -2 26 -3 41 -3z m-96 -1585 c39 -14 142 -44 227 -65 175 -45 286 -83 315
-108 11 -9 33 -32 48 -51 21 -25 25 -36 16 -47 -6 -7 -8 -17 -5 -23 4 -5 1
-21 -5 -35 -9 -19 -9 -29 -1 -39 8 -9 9 -24 3 -44 -6 -20 -5 -35 2 -42 7 -7 7
-14 0 -23 -11 -13 -13 -282 -2 -292 3 -3 3 -28 -1 -56 -5 -36 -2 -56 8 -71 11
-16 11 -23 2 -34 -10 -12 -10 -15 2 -15 10 0 13 -9 11 -32 -2 -18 3 -58 11
-88 10 -38 11 -57 4 -61 -7 -4 -8 -23 -4 -49 4 -25 3 -39 -3 -36 -17 11 -22
-11 -12 -54 8 -35 6 -42 -11 -51 -12 -7 -17 -16 -13 -29 3 -10 1 -21 -5 -25
-6 -3 -8 -11 -5 -16 10 -16 -6 -33 -17 -18 -6 9 -7 -2 -3 -33 6 -45 5 -48 -19
-54 -28 -7 -36 -24 -11 -24 20 0 19 -14 -1 -31 -12 -9 -15 -27 -12 -70 3 -51
1 -56 -14 -48 -27 15 -34 10 -10 -7 24 -17 31 -60 8 -51 -11 4 -12 0 -3 -23 9
-23 7 -31 -6 -45 -22 -21 -23 -59 -2 -51 9 3 19 -3 26 -15 15 -29 -5 -49 -50
-49 -36 -1 -71 -19 -71 -37 0 -5 -20 -27 -45 -49 -25 -21 -45 -44 -45 -51 0
-8 -13 -13 -31 -13 -17 0 -28 -4 -24 -10 3 -6 -1 -7 -9 -4 -9 3 -16 2 -16 -4
0 -8 -111 -56 -132 -57 -3 0 -10 -3 -14 -7 -12 -13 -24 -9 -24 7 0 8 -4 15 -9
15 -4 0 -16 28 -26 61 -23 83 -21 233 5 379 12 69 25 202 30 330 6 118 15 241
20 272 26 150 29 177 31 238 3 110 -13 249 -33 288 -10 20 -18 32 -18 27 0
-21 -20 22 -21 45 0 22 -1 23 -8 5 -8 -19 -8 -19 -20 3 -8 16 -11 53 -7 118 3
54 2 94 -4 94 -5 0 -8 18 -7 41 1 25 -4 43 -13 49 -7 5 -15 15 -16 22 -1 8
-18 49 -37 91 -42 91 -40 92 76 52z m-260 -270 c-7 -21 -13 -19 -13 6 0 11 4
18 10 14 5 -3 7 -12 3 -20z m897 -26 c0 -5 -4 -9 -10 -9 -5 0 -10 7 -10 16 0
8 5 12 10 9 6 -3 10 -10 10 -16z m50 -76 c0 -7 -4 -13 -10 -13 -5 0 -10 4 -10
9 0 5 -8 8 -17 7 -21 -1 -29 30 -12 50 10 13 15 11 30 -13 11 -15 19 -34 19
-40z m-3225 17 c3 -5 1 -10 -4 -10 -6 0 -11 5 -11 10 0 6 2 10 4 10 3 0 8 -4
11 -10z m3175 -66 c-18 -21 -24 -10 -9 18 8 14 14 18 17 10 2 -7 -2 -19 -8
-28z m70 2 c0 -8 -5 -18 -10 -21 -16 -10 0 -27 19 -20 13 5 14 4 4 -6 -17 -18
-16 -32 1 -26 10 4 13 1 9 -9 -3 -7 -16 -14 -29 -14 -22 0 -23 -3 -14 -20 9
-17 8 -20 -13 -20 -37 0 -38 10 -5 42 30 29 31 31 13 44 -10 8 -22 14 -27 14
-4 0 -8 9 -8 19 0 18 6 21 53 30 4 0 7 -5 7 -13z m-3290 -15 c0 -14 -18 -23
-30 -16 -6 4 -8 11 -5 16 8 12 35 12 35 0z m3243 -42 c-6 -6 -10 -17 -9 -23 2
-6 1 -8 -1 -3 -8 13 -23 8 -23 -8 0 -8 -4 -15 -10 -15 -5 0 -10 5 -10 10 0 14
37 50 52 50 9 0 9 -3 1 -11z m-3256 -125 c-8 -46 -14 -52 -33 -32 -15 15 -15
18 2 42 27 36 38 32 31 -10z m3391 -31 c29 -75 42 -128 42 -174 0 -28 5 -59
10 -70 10 -18 13 -18 42 -3 36 18 111 93 133 132 8 15 25 48 37 74 40 81 91
68 136 -34 28 -64 46 -112 47 -123 2 -19 18 -47 42 -74 14 -14 37 -46 51 -71
14 -25 44 -70 66 -100 54 -72 63 -87 87 -137 43 -92 104 -190 143 -233 22 -25
50 -58 62 -73 11 -15 44 -45 73 -66 29 -22 60 -55 69 -73 20 -40 72 -67 130
-68 23 0 42 -3 42 -7 0 -10 68 -9 98 1 13 4 35 3 50 -3 30 -13 77 -75 68 -90
-4 -6 4 -7 23 -1 36 10 60 -5 92 -57 13 -21 43 -62 67 -92 42 -52 44 -57 38
-103 -4 -29 -3 -48 3 -48 5 0 12 -9 16 -19 3 -10 20 -25 38 -32 42 -17 47 -25
47 -81 0 -27 5 -48 10 -48 6 0 10 -13 10 -30 0 -19 7 -34 20 -42 11 -7 20 -23
20 -36 0 -12 -9 -30 -20 -39 -27 -23 -25 -50 4 -57 28 -7 76 -73 76 -106 0
-13 -10 -34 -22 -47 -17 -18 -19 -26 -10 -35 7 -7 12 -27 12 -45 0 -26 -8 -41
-36 -65 -21 -19 -31 -35 -26 -40 16 -16 -2 -65 -31 -88 l-27 -22 -35 35 c-19
19 -35 42 -35 51 0 10 -6 13 -15 10 -8 -4 -21 -2 -28 4 -13 10 -136 31 -177
29 -14 -1 -37 2 -52 6 -31 8 -39 -11 -15 -35 8 -7 16 -28 20 -45 6 -29 2 -37
-33 -70 -32 -31 -41 -47 -46 -85 -6 -39 -4 -48 9 -48 8 0 17 7 21 15 3 10 19
15 44 15 23 0 45 -6 52 -15 9 -11 9 -15 1 -15 -7 0 -9 -4 -6 -10 3 -5 -7 -12
-22 -16 -15 -3 -33 -7 -40 -9 -6 -2 -17 3 -23 11 -18 21 -25 18 -73 -31 -25
-25 -49 -45 -55 -45 -5 0 -15 -28 -21 -62 -6 -35 -18 -68 -26 -74 -8 -6 -15
-15 -15 -19 0 -33 -59 -113 -85 -115 -16 -1 -52 -34 -72 -66 -20 -33 -69 -87
-161 -179 -73 -73 -111 -85 -176 -56 -51 22 -65 39 -88 103 -9 28 -28 64 -41
82 -13 17 -37 54 -52 81 -16 28 -39 61 -51 73 -13 13 -28 40 -35 60 -14 45
-39 78 -102 141 -62 63 -90 64 -127 1 -21 -35 -32 -44 -50 -42 -13 1 -29 11
-37 22 -17 24 -66 23 -81 -1 -10 -16 -8 -21 13 -35 14 -9 25 -20 25 -25 0 -16
-30 -9 -51 12 -28 28 -22 93 14 170 15 31 27 61 27 67 0 6 14 27 30 45 17 19
30 39 30 44 0 5 14 22 30 38 17 16 30 35 30 42 0 7 13 34 29 60 29 46 33 77 6
40 -13 -18 -14 -17 -20 2 -6 21 -25 29 -25 12 0 -5 -11 -8 -24 -7 -13 0 -22 4
-20 8 9 14 -9 38 -28 38 -16 0 -18 3 -10 13 13 15 -1 42 -17 33 -6 -4 -9 -12
-6 -17 4 -5 -1 -9 -9 -9 -8 0 -22 -10 -30 -22 l-16 -22 -29 32 c-17 17 -35 32
-40 32 -16 0 -13 -33 4 -66 31 -60 8 -164 -52 -234 -27 -31 -33 -44 -24 -50
10 -6 10 -12 1 -29 -16 -31 -51 -42 -92 -29 -29 9 -46 6 -108 -16 -41 -15 -80
-31 -86 -37 -7 -5 -48 -7 -100 -3 -68 5 -100 13 -137 32 -73 39 -96 102 -39
102 23 1 25 2 11 13 -9 7 -21 22 -27 34 -15 28 -16 183 -1 183 6 0 8 9 4 23
-5 20 -5 20 5 4 11 -18 13 -18 27 2 8 12 28 28 44 36 16 9 27 19 25 24 -7 11
113 126 159 151 30 17 54 22 100 20 73 -2 78 -2 136 0 40 2 46 5 42 21 -3 11
-1 19 5 19 9 0 18 21 27 60 2 8 9 16 14 18 6 2 11 12 11 21 0 10 11 30 25 45
14 15 25 31 25 36 0 4 17 19 38 31 51 33 56 34 49 16 -3 -9 -2 -19 2 -21 5 -3
11 11 14 31 5 29 2 39 -13 50 -11 8 -20 21 -20 29 0 13 4 12 30 -1 17 -9 30
-21 30 -29 0 -7 11 -25 24 -39 14 -15 29 -34 34 -43 6 -11 11 -13 16 -5 4 6 3
11 -2 11 -5 0 -15 14 -22 30 -7 17 -17 30 -22 30 -5 0 -7 13 -3 30 4 19 1 41
-9 61 -19 37 -20 49 -6 49 6 0 10 -8 10 -17 0 -9 2 -14 5 -11 3 3 2 19 -1 37
-4 20 -10 28 -14 21 -5 -8 -10 -9 -14 -2 -9 15 -48 2 -78 -26 -16 -14 -28 -20
-28 -13 0 7 -8 11 -17 9 -10 -1 -30 9 -44 22 -21 20 -25 32 -21 62 3 27 8 35
18 31 15 -6 54 23 54 39 0 6 9 21 20 35 11 14 20 36 20 49 0 13 4 24 10 24 5
0 14 9 20 21 9 15 8 24 -1 36 -18 21 -20 89 -4 119 8 15 10 36 6 52 -4 14 -1
48 6 76 15 58 17 110 4 102 -5 -3 -12 1 -15 10 -11 27 -7 37 9 24 13 -11 15
-6 15 38 0 31 -5 52 -12 55 -10 4 -9 8 2 17 11 9 12 13 3 17 -14 5 -18 114 -5
127 17 17 2 164 -20 193 -5 6 -5 14 1 17 16 10 0 46 -28 60 l-26 14 28 7 c45
12 32 30 -20 28 -21 -1 -15 25 7 32 14 5 19 13 15 28 -11 53 -10 72 5 72 11 0
15 11 14 43 -1 48 9 54 24 15z m-3431 -69 c-3 -3 -12 -4 -19 -1 -8 3 -5 6 6 6
11 1 17 -2 13 -5z m-67 -29 c7 -9 10 -18 7 -21 -10 -11 -37 5 -37 21 0 19 14
19 30 0z m1174 -283 c-13 -78 -17 -91 -30 -96 -9 -3 -17 2 -21 12 -3 9 -12 24
-19 32 -21 26 -6 66 29 77 41 12 47 9 41 -25z m701 16 c24 -19 27 -26 22 -62
-3 -22 -11 -42 -16 -44 -6 -2 -11 -12 -11 -23 0 -22 -12 -24 -43 -7 -38 20
-52 39 -37 48 13 8 10 21 -12 52 -10 14 -9 21 6 37 24 27 56 27 91 -1z m-321
-67 c3 -4 19 -11 36 -14 34 -7 41 -27 10 -27 -11 0 -20 4 -20 10 0 5 -7 7 -16
3 -15 -5 -33 11 -34 30 0 10 18 9 24 -2z m-14 -81 c0 -11 -7 -20 -15 -20 -15
0 -21 21 -8 33 12 13 23 7 23 -13z m310 -27 c26 -34 11 -41 -32 -16 -41 24
-47 43 -15 43 16 0 34 -11 47 -27z m-680 -29 c0 -9 -11 -14 -31 -14 -30 0 -31
7 -4 36 12 14 35 -1 35 -22z m678 -27 c6 -5 12 -16 12 -24 0 -11 -8 -13 -32
-8 -34 7 -72 41 -63 55 6 9 62 -6 83 -23z m1485 -138 c-7 -25 -10 -24 -15 5
-3 16 -1 23 7 19 7 -2 11 -13 8 -24z m134 -111 c-3 -7 -5 -2 -5 12 0 14 2 19
5 13 2 -7 2 -19 0 -25z m13 -49 c0 -6 -4 -7 -10 -4 -5 3 -10 11 -10 16 0 6 5
7 10 4 6 -3 10 -11 10 -16z m-8 -31 c-9 -9 -42 -1 -42 12 0 4 12 5 26 2 15 -3
22 -8 16 -14z m18 -238 c0 -5 -2 -10 -4 -10 -3 0 -8 5 -11 10 -3 6 -1 10 4 10
6 0 11 -4 11 -10z m-270 -15 c0 -8 -4 -15 -10 -15 -5 0 -10 7 -10 15 0 8 5 15
10 15 6 0 10 -7 10 -15z m-4306 -131 c3 -27 2 -52 -4 -59 -8 -9 -6 -14 5 -19
24 -9 18 -25 -17 -46 -43 -26 -51 -25 -44 4 3 14 2 27 -3 30 -4 3 -11 27 -15
53 -5 42 -4 50 16 65 39 30 55 23 62 -28z m-125 -97 c1 -5 -3 -5 -9 -2 -5 3
-10 16 -9 28 0 21 1 21 9 2 5 -11 9 -24 9 -28z m571 21 c0 -18 -2 -20 -9 -8
-6 8 -7 18 -5 22 9 14 14 9 14 -14z m1403 -568 c13 -10 29 -38 36 -62 48 -158
54 -171 65 -157 6 8 23 15 37 15 19 1 30 -6 42 -30 38 -72 49 -122 53 -246 4
-126 3 -128 -26 -55 -5 12 -7 -7 -6 -50 4 -81 -2 -114 -16 -93 -6 9 -8 3 -6
-17 3 -27 0 -30 -22 -27 -13 2 -30 11 -37 20 -15 20 -17 52 -3 52 20 0 9 47
-16 71 l-26 24 4 -24 c1 -13 -3 -26 -9 -28 -7 -3 -13 0 -13 6 0 6 -15 -4 -32
-23 -18 -18 -44 -37 -56 -41 -14 -4 -28 -19 -34 -36 -6 -18 -17 -29 -28 -29
-21 0 -72 47 -114 105 -17 22 -58 69 -92 105 -54 56 -116 155 -85 135 6 -3 11
-11 11 -16 0 -13 82 -119 92 -119 13 0 9 12 -7 24 -14 10 -20 45 -30 156 -1
19 -3 35 -5 35 -1 0 -4 32 -6 72 -5 74 4 95 32 72 12 -10 13 -9 8 5 -3 9 -1
16 5 16 6 0 11 6 11 13 0 7 11 20 24 30 13 10 27 28 30 40 3 13 26 33 53 48
59 33 130 37 166 9z m1474 -52 c-3 -8 -6 -5 -6 6 -1 11 2 17 5 13 3 -3 4 -12
1 -19z m20 -98 c-3 -11 -1 -20 5 -20 13 0 38 -26 38 -39 0 -16 11 -14 32 6 17
15 18 14 18 -19 0 -21 -9 -46 -21 -62 -11 -14 -17 -31 -13 -37 5 -9 -1 -10
-22 -5 -37 9 -58 29 -78 71 -15 31 -15 36 4 79 19 46 47 65 37 26z m2937 -266
c9 -3 16 -15 16 -25 0 -23 -35 -26 -56 -5 -12 13 -12 16 3 25 22 13 18 12 37
5z m1353 -660 c-3 -3 -12 -4 -19 -1 -8 3 -5 6 6 6 11 1 17 -2 13 -5z m-6 -84
c5 0 0 -9 -12 -21 -11 -11 -19 -30 -19 -42 1 -12 2 -28 1 -34 -1 -18 -30 -16
-37 2 -11 29 -24 15 -24 -26 0 -33 -6 -47 -30 -69 -33 -31 -39 -50 -15 -50 8
0 15 -7 15 -15 0 -9 -7 -18 -15 -21 -8 -4 -15 -15 -15 -25 0 -10 -4 -19 -10
-19 -5 0 -10 -18 -10 -40 0 -22 5 -40 10 -40 6 0 10 -18 10 -40 l0 -40 -40 0
c-33 0 -40 3 -40 19 0 14 -5 18 -19 14 -13 -3 -23 3 -32 18 -14 28 -49 58 -66
59 -7 0 -18 10 -24 23 -7 12 -16 25 -21 28 -14 9 -13 92 3 124 10 21 34 39 79
61 36 18 70 37 77 43 7 6 16 11 21 11 19 0 62 26 62 38 0 14 46 16 55 2 3 -5
10 -10 16 -10 5 0 9 5 9 10 0 6 -7 10 -15 10 -24 0 -17 26 9 38 13 6 32 22 43
35 l18 25 3 -34 c2 -19 7 -34 13 -34z m-151 -581 c0 -11 -4 -17 -10 -14 -5 3
-10 13 -10 21 0 8 5 14 10 14 6 0 10 -9 10 -21z m45 -19 c8 -13 -5 -13 -25 0
-13 8 -13 10 2 10 9 0 20 -4 23 -10z m-1226 -484 c15 -8 39 -32 53 -53 31 -47
131 -253 192 -394 24 -57 82 -180 129 -274 129 -260 187 -383 187 -399 0 -7 6
-19 13 -25 8 -6 19 -30 27 -53 7 -24 20 -54 29 -68 24 -34 66 -123 63 -132 -1
-5 2 -8 7 -8 5 0 15 -16 21 -35 6 -18 21 -49 33 -67 13 -18 29 -49 37 -68 14
-35 128 -230 140 -240 3 -3 14 -21 23 -41 9 -20 24 -39 32 -43 8 -3 15 -17 15
-31 0 -14 5 -25 10 -25 6 0 10 -7 10 -15 0 -8 4 -15 10 -15 14 0 34 -43 63
-135 32 -99 42 -155 27 -155 -5 0 -10 -18 -10 -40 0 -34 -3 -40 -22 -40 -21 0
-21 -2 -15 -120 5 -77 3 -120 -3 -120 -6 0 -10 -34 -10 -80 l0 -80 -29 0 c-20
0 -30 6 -34 20 -6 23 -26 27 -32 5 -14 -43 -17 -50 -22 -37 -3 7 -24 12 -57
12 -39 0 -56 5 -69 20 -9 11 -27 20 -39 20 -28 0 -88 22 -88 32 0 4 -6 8 -14
8 -8 0 -16 3 -18 8 -1 4 -27 15 -56 26 -48 16 -91 39 -192 97 -49 29 -116 96
-147 147 -22 37 -25 51 -21 105 3 49 9 67 28 87 40 41 76 60 127 67 27 3 60
14 75 24 14 11 29 19 32 19 14 0 55 49 61 72 5 20 0 35 -19 61 -14 19 -26 39
-26 45 0 6 -6 15 -14 19 -27 15 -96 112 -142 200 -83 156 -92 175 -155 333
-34 85 -77 189 -96 230 -54 115 -79 172 -93 210 -7 19 -26 64 -42 100 -17 36
-45 110 -63 165 -18 55 -41 125 -51 155 -15 44 -19 95 -21 260 l-4 205 28 19
c15 11 43 23 62 27 20 4 37 7 39 8 2 0 15 -5 31 -13z m-2699 -1502 c0 -8 -5
-12 -10 -9 -6 4 -8 11 -5 16 9 14 15 11 15 -7z m90 -917 c0 -7 6 -24 14 -39
19 -36 28 -81 18 -94 -12 -18 -52 -36 -67 -30 -16 6 -35 67 -35 110 0 19 9 37
27 52 27 23 43 23 43 1z m3730 -181 c0 -3 -4 -8 -10 -11 -5 -3 -10 -1 -10 4 0
6 5 11 10 11 6 0 10 -2 10 -4z m-3893 -98 c-3 -8 -6 -5 -6 6 -1 11 2 17 5 13
3 -3 4 -12 1 -19z m200 7 c17 -9 34 -22 37 -30 3 -8 15 -15 27 -15 30 0 48
-28 49 -72 0 -29 -8 -46 -35 -75 -64 -71 -87 -93 -96 -93 -5 0 -24 14 -42 30
-40 35 -72 38 -87 10 -13 -25 -29 -26 -37 -2 -4 9 -11 20 -17 24 -7 5 -3 8 9
8 24 0 62 53 77 106 5 22 16 43 24 47 8 4 14 14 14 20 0 16 28 57 39 57 4 0
22 -7 38 -15z"/>
<path d="M7040 7819 c0 -5 5 -7 10 -4 6 3 10 8 10 11 0 2 -4 4 -10 4 -5 0 -10
-5 -10 -11z"/>
<path d="M7016 7793 c-4 -11 -1 -22 8 -29 18 -13 21 -34 6 -34 -5 0 -10 7 -10
15 0 8 -7 15 -15 15 -16 0 -20 -27 -7 -46 9 -14 72 -26 72 -14 0 5 -5 12 -11
15 -6 4 -8 14 -5 22 4 9 1 22 -5 29 -9 11 -8 14 5 14 9 0 16 5 16 10 0 6 -4
10 -9 10 -5 0 -16 3 -24 6 -8 3 -17 -2 -21 -13z"/>
<path d="M8454 6145 c-7 -28 1 -44 15 -29 15 15 17 47 4 51 -7 3 -15 -7 -19
-22z"/>
<path d="M10120 5220 c-13 -24 -3 -70 16 -70 18 0 34 32 28 58 -8 29 -32 35
-44 12z"/>
<path d="M10210 5200 c0 -5 4 -10 9 -10 6 0 13 5 16 10 3 6 -1 10 -9 10 -9 0
-16 -4 -16 -10z"/>
<path d="M6215 4913 c4 -10 10 -28 12 -41 3 -12 10 -25 16 -29 7 -4 8 0 4 11
-4 10 -7 28 -7 41 0 12 -7 26 -16 29 -13 5 -15 2 -9 -11z"/>
<path d="M6201 4654 c0 -11 3 -14 6 -6 3 7 2 16 -1 19 -3 4 -6 -2 -5 -13z"/>
<path d="M11523 595 c0 -22 2 -30 4 -17 2 12 2 30 0 40 -3 9 -5 -1 -4 -23z"/>
<path d="M11490 551 c0 -6 5 -13 10 -16 6 -3 10 1 10 9 0 9 -4 16 -10 16 -5 0
-10 -4 -10 -9z"/>
<path d="M11540 520 c0 -22 5 -40 10 -40 6 0 10 18 10 40 0 22 -4 40 -10 40
-5 0 -10 -18 -10 -40z"/>
<path d="M7916 281 c-10 -16 5 -41 25 -41 16 0 18 3 9 19 -13 25 -27 34 -34
22z"/>
<path d="M4397 13039 c-49 -32 -72 -62 -83 -103 -5 -21 -3 -25 10 -20 9 3 16
1 16 -4 0 -15 35 -7 64 15 25 18 56 73 56 98 0 7 6 15 12 17 8 3 5 9 -8 16
-18 10 -29 7 -67 -19z"/>
<path d="M4903 12464 c-35 -15 -43 -25 -48 -57 -2 -12 -8 -44 -14 -72 -26
-116 -26 -114 2 -124 25 -10 69 -8 111 5 66 20 123 106 112 170 -2 16 -5 34
-5 41 -1 7 -11 21 -23 33 -26 24 -86 26 -135 4z"/>
<path d="M4812 11732 c-13 -2 -34 -21 -50 -45 -24 -36 -27 -50 -27 -121 1 -67
5 -89 25 -126 28 -50 72 -70 117 -54 23 8 28 19 44 99 24 115 24 116 -6 151
-14 16 -33 43 -41 61 -17 35 -28 41 -62 35z"/>
<path d="M265 11450 c-7 -12 2 -30 16 -30 12 0 12 27 0 35 -5 3 -12 1 -16 -5z"/>
<path d="M8320 11110 c0 -5 4 -10 9 -10 6 0 13 5 16 10 3 6 -1 10 -9 10 -9 0
-16 -4 -16 -10z"/>
<path d="M4409 11086 c-3 -3 -81 -8 -174 -11 -94 -2 -188 -9 -210 -14 -22 -5
-69 -12 -104 -16 -41 -5 -76 -16 -99 -31 -19 -13 -41 -24 -48 -24 -8 0 -15 -4
-15 -10 -1 -5 -2 -14 -3 -18 -3 -19 -69 -72 -90 -72 -13 0 -29 -7 -36 -15 -7
-8 -21 -15 -31 -15 -10 0 -21 -4 -24 -10 -3 -5 -20 -10 -36 -10 -16 0 -45 -7
-64 -14 -19 -8 -35 -11 -35 -5 0 5 -14 9 -30 9 -31 0 -149 34 -185 53 -11 6
-24 11 -30 12 -5 0 -35 8 -65 17 -65 19 -224 48 -261 48 -14 0 -34 9 -44 20
-10 11 -20 18 -23 15 -3 -3 -11 4 -19 15 -18 25 -36 25 -152 0 -51 -11 -116
-19 -145 -18 -28 1 -76 -4 -106 -10 l-55 -12 3 -42 c3 -30 13 -50 37 -74 19
-18 35 -40 37 -50 2 -9 23 -27 47 -40 25 -13 49 -30 53 -39 5 -8 15 -15 23
-15 8 0 20 -8 27 -18 7 -11 24 -25 38 -32 14 -7 27 -16 30 -19 3 -3 28 -22 55
-40 28 -19 54 -41 58 -48 4 -7 14 -13 20 -13 7 0 27 -13 45 -30 18 -16 38 -30
44 -30 6 0 28 -16 49 -35 22 -19 44 -35 50 -35 5 0 7 -4 4 -10 -3 -5 0 -10 7
-10 12 0 41 -25 122 -107 18 -18 36 -33 40 -33 4 0 22 -11 39 -24 40 -29 100
-29 237 3 52 12 122 27 154 33 57 10 112 39 301 157 33 21 96 57 140 80 43 23
83 47 87 54 6 9 8 9 8 0 0 -8 10 -7 33 6 17 10 69 31 115 46 68 24 85 34 97
58 8 17 15 36 15 44 0 7 5 13 10 13 6 0 10 6 10 13 0 22 34 75 78 121 23 25
42 50 42 57 0 6 7 17 17 24 18 13 36 114 23 129 -5 5 -19 10 -32 12 -13 2 -34
6 -48 10 -14 3 -28 3 -31 0z"/>
<path d="M755 11070 c-16 -4 -43 -11 -58 -14 -15 -4 -25 -11 -22 -16 3 -5 -4
-11 -15 -15 -11 -3 -20 -11 -20 -16 0 -5 -18 -9 -40 -9 -33 0 -40 -3 -40 -20
0 -11 -6 -20 -12 -20 -7 0 -21 -20 -31 -44 -10 -24 -26 -46 -37 -49 -11 -3
-23 -21 -31 -46 -7 -22 -20 -48 -31 -57 -20 -19 -24 -49 -8 -59 16 -10 12 -22
-10 -28 -24 -6 -27 -37 -4 -37 11 0 14 -6 9 -20 -8 -24 18 -38 39 -21 7 6 21
8 30 5 10 -4 26 2 39 14 23 22 97 52 127 52 10 0 23 -7 30 -15 7 -8 21 -15 31
-15 11 0 19 -7 19 -15 0 -8 9 -15 19 -15 11 0 27 -10 35 -21 16 -24 31 -33
124 -79 34 -17 62 -38 62 -46 0 -8 6 -14 13 -15 28 -1 61 -10 67 -17 3 -4 17
-13 33 -19 15 -7 27 -18 27 -24 0 -6 6 -9 14 -6 7 3 26 -7 41 -23 27 -28 27
-32 23 -114 -3 -64 -9 -90 -23 -106 -17 -19 -17 -21 21 -62 21 -24 46 -49 56
-56 10 -7 18 -19 18 -27 0 -17 123 -85 155 -85 13 0 27 -4 30 -10 4 -6 56 -10
125 -10 81 0 120 -4 122 -12 3 -9 12 -9 37 0 27 9 39 9 60 -2 14 -8 38 -17 54
-21 18 -4 27 -12 27 -25 0 -13 7 -20 20 -20 11 0 23 -7 26 -15 4 -8 10 -13 14
-10 5 3 15 -2 23 -10 9 -8 20 -15 24 -15 11 0 47 -40 62 -68 18 -33 13 -80
-14 -130 -28 -53 -30 -65 -12 -84 31 -34 77 -98 77 -107 0 -6 5 -11 10 -11 6
0 26 -16 46 -35 19 -19 42 -35 51 -35 9 0 13 -3 10 -7 -4 -3 15 -16 42 -29 26
-13 54 -30 61 -39 16 -20 64 -19 96 2 23 15 104 123 104 138 0 4 20 32 44 63
23 31 52 72 62 91 10 18 24 41 29 50 6 9 20 32 31 51 12 19 24 48 28 64 4 15
14 40 24 54 21 32 52 120 52 148 0 30 -29 84 -45 84 -8 0 -20 8 -27 19 -7 10
-36 29 -63 42 -44 20 -122 74 -150 103 -5 6 -22 17 -37 25 -16 8 -28 18 -28
23 0 4 -6 8 -13 8 -6 0 -32 18 -56 40 -24 22 -49 40 -57 40 -7 0 -17 7 -22 16
-9 16 -40 36 -84 55 -16 6 -28 15 -28 20 0 5 -13 15 -29 24 -16 8 -35 20 -43
27 -7 7 -30 22 -51 32 -20 11 -37 23 -37 28 0 4 -7 8 -15 8 -8 0 -15 3 -15 8
0 7 -14 16 -76 45 -17 8 -35 20 -38 26 -4 6 -16 11 -26 11 -10 0 -20 4 -22 8
-4 10 -106 58 -140 66 -16 4 -28 13 -28 21 0 9 -9 15 -21 15 -12 0 -37 16 -57
36 -20 20 -53 47 -72 60 -19 13 -60 41 -90 64 -30 22 -71 48 -90 58 -19 10
-51 28 -70 40 -19 12 -45 22 -57 22 -13 0 -23 4 -23 9 0 5 -10 11 -22 14 -43
9 -93 32 -133 58 -63 42 -175 59 -250 39z"/>
<path d="M298 9868 c-16 -5 -28 -14 -28 -19 0 -5 -9 -9 -19 -9 -12 0 -21 -9
-25 -26 -5 -19 -11 -24 -25 -19 -14 4 -20 -2 -27 -27 -10 -35 -23 -41 -127
-53 l-47 -6 0 -88 c0 -88 20 -168 39 -156 5 2 11 -2 15 -10 3 -10 -1 -15 -11
-15 -14 0 -13 -4 5 -23 15 -16 18 -27 12 -37 -5 -8 -10 -24 -10 -36 0 -12 -10
-25 -25 -32 l-25 -12 0 -353 0 -354 73 -7 c160 -16 187 -21 199 -39 4 -7 11
-8 20 0 7 5 38 11 68 12 30 1 60 7 67 12 8 7 18 7 30 1 13 -8 22 -5 40 14 20
22 28 24 80 18 88 -8 101 -12 108 -34 3 -11 14 -27 22 -36 12 -12 14 -20 6
-32 -5 -9 -6 -27 -2 -42 11 -37 29 -165 29 -209 0 -22 6 -44 15 -51 8 -7 15
-21 15 -32 0 -10 11 -40 24 -66 14 -27 30 -75 36 -108 27 -140 36 -171 61
-203 l27 -34 58 11 c33 7 111 14 174 16 130 4 294 45 318 78 7 10 22 18 33 18
12 0 19 7 19 19 0 11 3 21 8 23 4 2 20 18 35 37 22 26 25 36 15 43 -10 7 -9
11 5 22 9 7 17 16 17 20 0 11 54 55 68 56 6 0 12 7 12 15 0 17 18 19 39 6 12
-8 12 -12 2 -25 -12 -14 -10 -16 12 -16 14 0 27 6 29 12 6 17 38 -14 38 -36 0
-8 9 -18 20 -21 11 -3 20 -13 20 -21 0 -8 4 -14 9 -14 5 0 5 -15 1 -36 -6 -27
-4 -47 10 -79 10 -24 23 -46 28 -49 6 -3 13 -25 17 -49 4 -23 14 -66 22 -95 8
-29 19 -90 23 -135 5 -45 16 -113 25 -152 10 -44 15 -95 12 -137 -2 -38 -1
-68 4 -68 4 0 9 5 11 10 2 6 4 -8 4 -31 2 -51 66 -181 98 -198 11 -6 32 -12
46 -12 41 -2 132 20 150 36 9 8 24 15 33 15 9 0 30 14 47 30 17 17 35 30 40
30 6 0 15 9 22 20 7 11 18 20 25 20 7 0 13 7 13 15 0 9 17 23 38 33 20 9 39
20 40 25 2 4 10 7 18 7 8 0 13 3 13 8 -4 21 3 23 26 8 24 -16 25 -15 25 3 0
21 37 35 64 25 12 -4 16 0 16 15 0 16 6 21 25 21 24 0 24 1 23 80 0 44 -4 80
-8 80 -5 0 -4 16 2 37 7 26 6 42 -2 58 -6 12 -11 31 -9 41 6 46 -31 214 -52
239 -5 5 -9 17 -9 26 0 20 -36 103 -53 121 -6 7 -21 29 -31 48 -10 19 -28 45
-40 58 -12 13 -20 25 -19 28 3 4 -23 72 -37 96 -6 10 -10 29 -10 42 0 13 -3
26 -7 28 -5 2 -17 21 -28 43 -25 50 -77 129 -87 133 -5 2 -15 19 -22 37 -15
35 -108 112 -114 94 -2 -5 -17 2 -34 16 -16 14 -34 25 -39 25 -5 0 -9 6 -9 13
0 7 -8 17 -19 22 -54 29 -103 69 -111 90 -5 14 -16 25 -23 25 -7 0 -26 14 -42
30 -16 17 -37 30 -47 30 -10 0 -18 7 -18 15 0 9 -8 19 -17 22 -30 12 -83 51
-103 76 -11 14 -35 32 -55 41 -19 9 -35 21 -35 26 0 6 -8 10 -19 10 -10 0 -29
9 -42 19 -14 10 -43 25 -67 31 -23 7 -42 17 -42 22 0 4 -7 8 -15 8 -9 0 -18 7
-21 15 -4 8 -18 15 -33 15 -14 0 -41 4 -59 9 -20 6 -32 6 -32 0 0 -5 -5 -9
-10 -9 -6 0 -24 -15 -40 -32 -16 -18 -30 -27 -30 -20 0 10 -7 9 -34 -2 -26
-11 -45 -12 -80 -4 -25 5 -46 14 -46 18 0 5 -17 12 -37 16 -24 4 -47 18 -62
35 -13 16 -29 29 -36 29 -15 0 -51 40 -57 65 -3 11 -9 28 -13 38 -5 13 -2 17
14 17 13 0 21 6 21 18 0 12 2 14 8 4 7 -9 13 -8 27 8 11 12 26 18 35 15 10 -3
23 2 31 11 11 13 11 18 2 21 -7 3 -13 15 -13 28 0 15 -7 26 -20 30 -11 3 -20
10 -20 14 0 12 -179 194 -229 231 -47 37 -90 62 -133 80 -16 7 -26 16 -23 20
3 5 -12 14 -32 21 -21 6 -60 22 -87 35 -28 13 -60 24 -73 24 -13 0 -23 5 -23
10 0 6 -11 10 -24 10 -14 0 -28 5 -31 10 -7 12 -11 12 -47 -2z m979 -824 c-3
-3 -12 -4 -19 -1 -8 3 -5 6 6 6 11 1 17 -2 13 -5z m791 -496 c-7 -19 -38 -22
-38 -4 0 10 9 16 21 16 12 0 19 -5 17 -12z"/>
<path d="M210 8227 c-3 -3 -17 -8 -30 -10 -14 -2 -32 -6 -40 -10 -31 -11 -60
-15 -60 -7 0 4 -9 6 -20 3 -22 -6 -26 -18 -10 -28 6 -4 8 -11 5 -16 -4 -5 5
-13 19 -19 14 -5 26 -14 26 -20 0 -6 13 -16 30 -21 17 -6 30 -15 30 -20 0 -5
9 -9 20 -9 11 0 23 -6 26 -14 3 -8 16 -17 28 -20 12 -3 43 -25 68 -48 24 -24
58 -48 74 -54 25 -9 34 -7 66 15 32 23 36 30 33 61 -8 75 -46 162 -83 189 -27
19 -169 41 -182 28z"/>
<path d="M1338 7407 c-24 -9 -28 -16 -28 -54 0 -49 5 -54 100 -117 36 -23 95
-63 132 -89 l67 -47 35 17 c49 25 60 49 51 122 -11 96 -74 155 -180 166 -115
13 -150 14 -177 2z"/>
<path d="M0 6836 l0 -544 83 -7 c110 -8 184 -23 201 -41 8 -8 19 -14 24 -14 5
0 30 -16 55 -35 25 -19 49 -35 54 -35 4 0 22 -13 38 -29 17 -15 48 -34 68 -42
20 -7 37 -17 37 -21 0 -4 7 -8 16 -8 9 0 18 -9 21 -20 3 -11 20 -25 39 -32 23
-8 34 -18 34 -33 1 -28 45 -127 56 -125 5 1 12 -9 15 -22 3 -15 12 -22 22 -20
10 2 17 -4 17 -12 0 -31 123 -116 167 -116 7 0 13 -5 13 -11 0 -7 7 -8 18 -4
31 14 136 13 157 -1 11 -8 29 -14 41 -14 11 0 33 -11 48 -25 15 -14 32 -25 38
-25 6 0 34 -17 62 -38 28 -21 65 -44 83 -51 19 -8 38 -25 45 -42 9 -20 20 -29
35 -29 14 0 23 -6 23 -15 0 -8 4 -15 9 -15 5 0 19 -29 31 -65 13 -39 27 -65
36 -65 10 0 14 -12 14 -40 0 -38 -1 -40 -32 -41 -28 -2 -29 -2 -8 -6 35 -6 46
-19 31 -37 -7 -8 -10 -20 -6 -26 3 -5 2 -10 -3 -10 -5 0 -17 -18 -27 -40 -10
-22 -22 -40 -27 -40 -4 0 -8 -13 -8 -28 0 -15 -5 -33 -12 -40 -9 -9 -9 -12 0
-12 21 0 13 -27 -13 -44 -28 -18 -33 -36 -10 -36 22 0 18 -17 -5 -23 -11 -3
-20 -12 -20 -21 0 -17 -9 -18 -122 -16 -37 1 -69 -3 -73 -9 -3 -6 -19 -11 -36
-11 -16 0 -29 -4 -29 -9 0 -5 -9 -7 -21 -4 -14 4 -17 8 -8 13 8 6 6 11 -9 19
-28 15 -42 14 -42 -4 0 -8 -4 -15 -9 -15 -13 0 -71 56 -71 69 0 6 -17 11 -39
11 -22 0 -41 5 -44 13 -4 10 -7 10 -18 0 -11 -11 -11 -13 1 -13 23 0 -21 -40
-54 -48 -21 -6 -31 -15 -32 -28 -1 -35 -16 -84 -25 -84 -11 0 -12 -91 -1 -122
5 -13 7 -44 4 -70 -3 -37 -8 -48 -21 -48 -10 0 -26 -9 -36 -20 -10 -11 -26
-22 -36 -25 -11 -4 -19 -13 -19 -21 0 -8 -6 -14 -13 -14 -23 0 -67 -25 -67
-37 0 -7 -12 -13 -26 -13 -14 0 -33 -4 -43 -9 -10 -6 -41 -11 -69 -12 -29 -2
-52 -6 -52 -11 0 -4 -7 -8 -15 -8 -8 0 -15 3 -15 8 0 4 -11 7 -24 7 -13 0 -22
-3 -20 -7 7 -12 -16 -20 -29 -10 -14 11 -15 11 -117 13 -63 1 -87 7 -147 35
-39 19 -74 34 -77 34 -3 0 -6 -202 -6 -449 l0 -450 33 4 c42 6 256 30 433 50
78 9 166 20 195 26 30 5 88 16 129 23 41 7 111 23 155 36 244 68 413 90 580
74 90 -9 108 -14 170 -50 86 -49 130 -109 141 -190 13 -105 5 -137 -121 -524
-8 -25 -15 -54 -15 -65 0 -12 -4 -25 -8 -30 -18 -20 -62 -299 -62 -387 0 -26
-5 -50 -11 -54 -6 -3 -9 -24 -7 -45 2 -22 0 -39 -4 -39 -5 0 -8 -7 -8 -15 0
-8 -4 -23 -9 -33 -19 -39 -41 -122 -41 -156 0 -23 -5 -36 -13 -36 -17 0 -40
-91 -26 -105 6 -5 9 -3 9 8 0 9 6 17 14 17 16 0 28 -38 14 -42 -6 -2 -8 -13
-6 -23 4 -17 7 -16 18 10 7 17 12 36 11 43 -1 6 5 12 14 12 8 0 15 6 15 14 0
7 9 16 20 19 27 7 25 23 -2 32 -22 8 -22 8 4 12 15 2 30 12 33 23 3 10 12 21
20 24 8 3 15 12 15 21 0 8 4 15 9 15 5 0 12 18 16 40 4 22 12 40 19 40 6 0 17
12 24 27 25 56 82 133 99 133 4 0 13 8 20 19 8 13 29 20 70 25 33 4 68 12 79
20 32 21 136 49 181 49 24 0 47 5 54 13 6 8 22 14 35 14 13 0 38 8 56 18 59
33 115 42 160 26 22 -8 44 -11 49 -8 5 3 9 1 9 -4 0 -4 15 -26 33 -48 26 -31
33 -50 36 -93 2 -30 12 -68 22 -85 10 -17 19 -45 19 -63 0 -17 6 -34 13 -36 7
-3 4 -6 -7 -6 -16 -1 -17 -6 -11 -33 4 -18 7 -40 7 -50 0 -9 8 -24 19 -34 17
-16 19 -16 19 -1 0 13 10 17 45 17 43 0 46 2 52 30 4 21 11 30 24 30 15 0 19
7 19 35 0 19 5 35 10 35 6 0 10 11 10 24 0 13 5 26 11 28 12 4 53 141 52 176
-1 12 3 22 8 22 5 0 9 6 9 13 0 18 105 127 122 127 17 0 50 64 69 135 10 35
30 66 70 110 l56 60 6 80 c3 45 20 126 38 185 l31 105 3 325 c2 179 7 348 12
376 7 35 5 68 -4 110 -15 68 -35 184 -35 199 2 29 23 88 55 150 l36 70 11 220
c6 122 18 254 27 296 l16 77 116 4 c64 3 128 10 143 16 l27 11 -19 38 c-41 85
-90 277 -90 350 0 20 5 50 11 67 10 28 4 48 -54 196 -49 124 -69 190 -81 268
-9 56 -34 156 -57 223 -22 66 -38 125 -35 132 2 7 5 2 5 -10 1 -13 5 -23 10
-23 18 0 3 64 -19 82 -17 14 -19 18 -6 18 9 0 16 5 16 10 0 6 -6 10 -13 10 -9
0 -12 10 -9 32 4 25 2 30 -11 25 -15 -6 -29 19 -40 68 -3 15 -5 13 -6 -7 0
-16 -5 -28 -11 -28 -5 0 -7 6 -4 14 6 15 -28 40 -68 49 -16 4 -40 10 -54 13
-19 5 -25 3 -20 -5 4 -6 2 -11 -3 -11 -6 0 -11 5 -11 10 0 15 -26 12 -39 -4
-8 -10 -24 -12 -53 -8 -48 6 -46 -12 2 -23 17 -4 30 -11 30 -17 0 -6 -7 -7
-17 -3 -33 14 -113 18 -113 6 0 -6 -9 -11 -20 -11 -45 0 -34 -130 16 -176 15
-15 20 -29 17 -48 -3 -15 -1 -26 6 -26 6 0 11 -18 11 -42 0 -28 3 -38 9 -29 7
11 9 11 13 0 3 -8 -6 -22 -19 -32 -30 -24 -29 -37 4 -37 25 0 26 -1 8 -14 -18
-13 -17 -14 13 -21 17 -3 35 -11 38 -17 4 -6 -1 -8 -15 -3 -15 4 -21 2 -21 -9
0 -9 12 -18 28 -22 46 -10 59 -16 44 -21 -6 -3 -12 -8 -12 -11 0 -11 59 -34
70 -27 5 3 10 -3 10 -13 0 -15 -9 -21 -40 -26 -37 -6 -58 -26 -27 -26 7 0 22
-7 33 -15 18 -14 17 -14 -14 -8 -33 6 -33 5 -21 -16 8 -11 17 -21 22 -21 4 0
0 -11 -9 -25 -9 -14 -21 -22 -27 -18 -6 4 -7 -4 -2 -23 4 -16 7 -46 6 -66 -1
-20 3 -39 8 -43 7 -4 6 -13 -2 -27 -9 -16 -9 -22 1 -25 17 -6 15 -23 -2 -23
-9 0 -12 -7 -9 -20 4 -16 0 -20 -21 -20 -14 0 -26 -4 -26 -10 0 -5 3 -10 8
-10 4 0 12 -19 18 -42 6 -24 14 -51 19 -61 4 -9 -20 10 -53 45 -54 55 -64 62
-103 63 -78 4 -166 24 -213 51 -25 14 -46 29 -46 34 0 4 -8 10 -17 14 -10 3
-53 27 -95 53 -148 91 -213 128 -278 156 -36 16 -82 37 -102 48 -20 10 -45 19
-54 19 -30 0 -314 137 -314 151 0 5 -6 9 -13 9 -8 0 -33 18 -57 40 -24 22 -45
40 -47 40 -2 0 -30 19 -61 42 -74 55 -80 59 -108 85 -14 13 -37 29 -52 37 -15
8 -42 28 -61 45 -18 16 -47 33 -63 37 -29 6 -50 19 -90 57 -10 9 -21 17 -24
17 -3 0 -25 16 -48 35 -24 19 -46 35 -49 35 -6 0 -97 60 -107 70 -3 3 -30 21
-60 40 -30 19 -59 38 -65 42 -5 4 -23 18 -40 31 -67 51 -167 107 -194 107 -9
1 -34 8 -56 16 -127 49 -199 47 -267 -7 -30 -23 -47 -29 -87 -29 -28 0 -51 5
-51 10 0 6 -9 10 -20 10 -13 0 -28 12 -38 30 -9 16 -23 30 -29 30 -9 0 -13 16
-13 44 0 53 8 78 23 69 7 -4 8 0 4 11 -4 10 -7 33 -7 51 0 22 -9 43 -29 64
-16 17 -31 38 -35 46 -3 8 -11 15 -18 15 -7 0 -19 9 -26 20 -7 11 -21 20 -32
20 -20 0 -20 -7 -20 -544z m3068 -370 c-2 -1 -11 -8 -20 -15 -16 -12 -18 -11
-18 7 0 15 5 19 20 15 12 -3 19 -6 18 -7z m42 -6 c0 -5 -4 -10 -10 -10 -5 0
-10 5 -10 10 0 6 5 10 10 10 6 0 10 -4 10 -10z m20 -230 c0 -5 -2 -10 -4 -10
-3 0 -8 5 -11 10 -3 6 -1 10 4 10 6 0 11 -4 11 -10z m60 -30 c0 -5 -4 -10 -10
-10 -5 0 -10 5 -10 10 0 6 5 10 10 10 6 0 10 -4 10 -10z m-1071 -1231 c15 23
41 -11 41 -53 0 -35 1 -36 36 -36 36 0 81 -29 56 -38 -18 -6 -14 -20 8 -27 20
-6 20 -6 0 -28 -11 -11 -20 -25 -20 -30 0 -13 -62 -62 -79 -62 -8 0 -16 -6
-19 -13 -5 -17 -33 -15 -46 4 -10 14 -14 13 -38 -5 -34 -27 -38 -17 -38 105 0
77 3 94 15 94 11 0 15 11 15 40 0 29 4 40 15 40 8 0 15 8 15 18 1 15 2 15 16
-3 12 -16 16 -17 23 -6z m-99 -49 c0 -22 -4 -40 -10 -40 -5 0 -10 -18 -10 -40
0 -22 -4 -40 -10 -40 -5 0 -10 18 -10 40 0 22 -4 40 -10 40 -5 0 -10 -18 -10
-40 0 -22 -4 -40 -10 -40 -5 0 -10 18 -10 40 0 22 -1 43 -2 48 -1 4 13 16 30
27 17 11 31 26 32 33 0 6 5 12 10 12 6 0 10 -18 10 -40z m-503 -82 c-3 -8 -6
-5 -6 6 -1 11 2 17 5 13 3 -3 4 -12 1 -19z m-188 -254 c17 -14 31 -31 31 -38
0 -7 12 -17 28 -23 l27 -10 -27 -11 c-16 -6 -28 -16 -28 -21 0 -5 -17 -16 -37
-24 -37 -14 -38 -14 -44 7 -4 16 -7 11 -13 -21 -8 -44 -26 -59 -26 -23 0 27
-18 26 -22 -1 -3 -18 -10 -21 -60 -22 l-58 -2 0 42 0 43 40 0 c33 0 40 3 40
19 0 22 16 37 22 21 2 -6 13 -4 26 6 14 9 21 22 18 31 -4 9 1 17 14 20 11 3
20 12 20 19 0 21 15 17 49 -12z"/>
<path d="M2110 4710 c0 -5 5 -10 10 -10 6 0 10 5 10 10 0 6 -4 10 -10 10 -5 0
-10 -4 -10 -10z"/>
<path d="M2781 7344 c0 -11 3 -14 6 -6 3 7 2 16 -1 19 -3 4 -6 -2 -5 -13z"/>
<path d="M3027 7283 c-9 -3 -32 -17 -49 -33 -17 -16 -35 -27 -39 -25 -4 3 -9
-4 -12 -15 -3 -11 -1 -20 3 -20 5 0 11 -18 15 -40 4 -22 11 -38 16 -35 5 4 6
-1 3 -9 -4 -10 -1 -16 10 -16 8 0 20 -10 27 -21 15 -29 69 -20 109 18 37 34
37 40 4 105 -32 63 -63 96 -87 91z"/>
<path d="M5260 7240 c0 -5 5 -10 10 -10 6 0 10 5 10 10 0 6 -4 10 -10 10 -5 0
-10 -4 -10 -10z"/>
<path d="M3592 6928 c-8 -8 -9 -15 -1 -25 9 -10 8 -13 -1 -13 -8 0 -10 -9 -6
-26 6 -23 4 -26 -13 -21 -25 6 -28 -11 -3 -19 9 -3 27 -10 38 -16 15 -7 28 -7
42 1 18 10 20 15 11 38 -6 15 -16 31 -22 35 -7 5 0 8 17 8 28 0 29 1 10 15
-10 8 -29 15 -42 15 -13 0 -20 4 -17 10 8 14 2 13 -13 -2z m43 -88 c3 -5 1
-10 -4 -10 -6 0 -11 5 -11 10 0 6 2 10 4 10 3 0 8 -4 11 -10z"/>
<path d="M2515 6656 c-22 -8 -34 -14 -26 -15 11 -1 10 -6 -4 -21 -30 -34 -15
-140 19 -140 6 0 28 -12 49 -26 25 -16 58 -28 93 -31 30 -3 57 -10 60 -14 3
-5 16 -9 29 -9 27 0 28 4 49 110 26 136 26 131 2 129 -11 -1 -33 3 -47 9 -45
18 -180 23 -224 8z"/>
<path d="M3116 6112 c-3 -6 -1 -14 5 -17 15 -10 25 3 12 16 -7 7 -13 7 -17 1z"/>
<path d="M3805 5848 c-22 -5 -47 -12 -55 -15 -8 -4 -17 -7 -20 -8 -51 -12 -59
-17 -54 -30 4 -9 1 -15 -7 -15 -8 0 -5 -6 7 -15 14 -10 15 -14 5 -15 -11 0
-10 -3 4 -13 13 -11 29 -12 64 -4 25 5 63 12 84 17 54 11 63 22 47 59 -17 43
-29 49 -75 39z"/>
<path d="M800 5589 c0 -5 5 -7 10 -4 6 3 10 8 10 11 0 2 -4 4 -10 4 -5 0 -10
-5 -10 -11z"/>
<path d="M0 5145 c0 -98 3 -125 12 -121 7 3 21 9 30 12 10 4 18 15 18 25 0 21
16 35 22 18 2 -6 13 -3 28 9 l25 21 -25 48 c-25 48 -59 86 -92 104 -17 9 -18
1 -18 -116z"/>
<path d="M7013 2215 c-3 -9 -3 -18 0 -21 9 -9 27 6 27 22 0 19 -19 18 -27 -1z"/>
<path d="M7139 2119 c-14 -26 8 -53 34 -43 23 8 21 41 -3 54 -16 8 -21 6 -31
-11z"/>
<path d="M2743 2068 c2 -7 10 -13 17 -13 7 0 15 6 18 13 2 7 -5 12 -18 12 -13
0 -20 -5 -17 -12z"/>
<path d="M7545 1175 l-20 -15 20 -15 c11 -9 34 -15 50 -13 25 2 30 8 30 28 0
20 -5 26 -30 28 -16 2 -39 -4 -50 -13z"/>
<path d="M7567 974 c-9 -10 12 -34 30 -34 19 0 12 34 -8 38 -8 1 -18 0 -22 -4z"/>
<path d="M7665 853 c-7 -28 6 -48 35 -56 14 -4 20 2 25 24 8 35 2 45 -29 51
-20 4 -26 0 -31 -19z"/>
<path d="M7460 350 c0 -5 5 -10 10 -10 6 0 10 5 10 10 0 6 -4 10 -10 10 -5 0
-10 -4 -10 -10z"/>
</g>
</svg>
