<?xml version="1.0" standalone="no"?>
<!DOCTYPE svg PUBLIC "-//W3C//DTD SVG 20010904//EN"
 "http://www.w3.org/TR/2001/REC-SVG-20010904/DTD/svg10.dtd">
<svg version="1.0" xmlns="http://www.w3.org/2000/svg"
 width="1200.000000pt" height="1200.000000pt" viewBox="0 0 1200.000000 1200.000000"
 preserveAspectRatio="xMidYMid meet">

<g transform="translate(0.000000,1200.000000) scale(0.100000,-0.100000)"
fill="#000000" stroke="none">
<path d="M4255 11180 c-313 -46 -601 -298 -863 -755 -28 -49 -76 -144 -107
-210 -32 -70 -64 -126 -77 -135 -210 -138 -733 -580 -711 -600 10 -9 258 -50
301 -50 24 0 53 20 133 90 57 50 106 90 111 90 4 0 1 -21 -7 -47 -8 -27 -32
-108 -52 -180 -21 -73 -43 -133 -49 -133 -31 0 -449 56 -809 109 -738 108
-1036 141 -1261 141 -143 0 -214 -14 -274 -54 -85 -56 -115 -126 -115 -271 0
-113 15 -154 65 -180 142 -74 289 126 178 244 -27 30 -15 38 71 47 125 13 521
-26 1019 -101 92 -14 200 -30 240 -36 127 -18 126 -8 18 -147 -224 -288 -384
-544 -552 -885 -219 -444 -361 -887 -448 -1394 -25 -147 -27 -143 45 -117 24
8 84 26 133 38 l90 24 31 158 c126 629 356 1186 710 1720 173 261 385 524 422
524 12 0 92 -11 177 -25 85 -14 166 -25 180 -25 20 0 26 -5 26 -21 0 -11 -41
-168 -90 -347 -50 -180 -111 -401 -137 -492 -48 -176 -146 -518 -212 -740 -74
-250 -224 -667 -304 -841 -13 -30 -28 -65 -32 -77 -8 -27 -6 -27 -140 4 -64
15 -120 19 -285 19 -220 0 -306 -12 -492 -71 -241 -76 -475 -235 -588 -399
-134 -195 -157 -432 -58 -617 88 -166 230 -256 433 -274 l74 -7 6 -41 c101
-636 334 -1281 655 -1816 89 -148 97 -161 219 -335 467 -668 1128 -1239 1865
-1607 243 -122 422 -197 666 -279 474 -159 892 -236 1405 -259 203 -9 510 -2
675 15 518 54 924 151 1390 331 171 67 628 288 636 308 2 6 -11 70 -29 143
l-33 132 -89 -51 c-1115 -625 -2458 -775 -3700 -413 -319 93 -751 278 -1040
445 -479 278 -924 654 -1291 1090 -402 480 -723 1073 -904 1673 -53 179 -94
345 -125 510 -37 201 -40 187 58 221 144 50 249 108 372 205 183 143 367 335
523 544 46 62 85 113 87 115 1 2 32 -10 67 -26 116 -53 338 -189 773 -476 867
-572 1047 -681 1690 -1019 480 -252 706 -357 877 -409 43 -13 78 -27 78 -31 0
-4 -23 -51 -52 -105 -267 -502 -491 -825 -758 -1093 -170 -171 -287 -261 -425
-329 -151 -75 -237 -93 -410 -88 -126 5 -148 8 -225 37 -178 66 -296 174 -415
378 -79 137 -116 160 -236 150 -117 -10 -188 -63 -208 -156 -16 -76 3 -125 97
-243 196 -244 403 -382 652 -435 116 -24 370 -24 493 0 310 62 599 233 901
532 287 284 525 628 792 1141 l88 171 126 6 c215 10 357 64 476 182 110 108
150 211 161 410 6 119 -3 175 -37 218 -45 57 -155 60 -210 6 -24 -25 -30 -39
-30 -74 0 -51 14 -92 40 -120 17 -19 19 -28 10 -80 -13 -79 -61 -174 -109
-218 -48 -43 -124 -72 -226 -86 -82 -12 -94 -10 -78 11 6 7 41 81 78 163 37
83 75 168 85 190 31 70 195 454 254 597 71 173 164 380 175 391 5 5 29 -29 53
-75 45 -82 71 -129 321 -577 104 -186 128 -237 120 -250 -219 -338 -326 -557
-439 -898 -69 -209 -95 -348 -101 -553 -13 -406 66 -633 248 -715 58 -26 68
-27 173 -23 184 8 316 68 457 207 225 223 348 568 366 1026 13 345 -36 628
-164 948 l-55 137 164 178 c270 293 546 577 940 967 350 347 478 472 838 820
80 77 194 187 253 244 59 57 107 100 107 95 0 -5 -23 -49 -51 -99 -119 -212
-309 -609 -441 -920 -494 -1162 -833 -2281 -978 -3225 -76 -496 -78 -974 -5
-1295 49 -216 144 -414 259 -542 97 -108 223 -183 378 -225 114 -31 362 -33
452 -4 109 36 155 113 109 183 -27 40 -71 53 -185 53 -128 0 -165 16 -252 102
-104 104 -191 307 -231 537 -8 46 -15 93 -14 105 0 14 33 48 107 106 58 47
208 186 332 310 273 272 450 485 648 780 678 1018 964 2232 811 3445 -30 238
-86 535 -101 535 -8 0 -49 -63 -144 -220 l-64 -107 19 -124 c39 -245 46 -355
46 -729 -1 -380 -8 -487 -56 -775 -50 -307 -144 -653 -253 -937 -115 -301
-306 -670 -478 -926 -232 -346 -524 -682 -818 -942 l-73 -65 7 140 c18 366 66
693 166 1145 39 174 47 208 96 390 371 1381 1106 2943 1745 3710 89 108 220
239 276 278 38 27 57 79 49 130 -20 112 -66 186 -139 224 -35 18 -59 22 -137
23 -83 0 -104 -4 -165 -29 -87 -36 -195 -100 -302 -177 -45 -32 -85 -59 -90
-59 -4 0 -30 48 -58 107 -99 212 -307 555 -468 773 -233 314 -487 588 -787
847 -1130 977 -2633 1403 -4108 1166 -139 -22 -162 -28 -157 -42 9 -24 24
-150 25 -209 0 -49 1 -52 23 -47 294 66 854 101 1221 76 567 -39 1119 -172
1620 -393 973 -428 1805 -1197 2297 -2124 35 -65 87 -167 116 -226 l52 -107
-152 -133 c-314 -273 -514 -464 -1087 -1038 -548 -547 -568 -568 -1124 -1153
l-359 -377 -80 152 c-43 84 -124 234 -180 333 -128 229 -115 207 -247 434
-105 182 -112 196 -102 225 6 17 29 85 52 151 86 250 148 536 171 783 24 271
-38 508 -169 646 -96 100 -231 146 -430 146 -173 0 -271 -38 -367 -142 -203
-219 -228 -636 -66 -1111 79 -232 181 -443 307 -634 l81 -122 -45 -103 c-24
-57 -104 -245 -177 -418 -221 -525 -382 -886 -471 -1062 l-29 -57 -73 25 c-40
13 -113 44 -162 69 -204 102 -876 501 -1161 688 -189 124 -489 315 -757 482
-49 30 -232 141 -332 200 -123 73 -391 216 -660 353 -157 80 -289 148 -293
152 -5 4 40 104 99 221 203 406 346 747 478 1139 93 276 128 398 217 745 37
149 88 333 111 409 l43 139 70 22 c257 79 662 387 948 719 130 151 279 374
341 510 145 318 139 624 -16 792 -87 94 -207 145 -388 164 -112 11 -131 11
-205 0z m320 -286 c66 -16 128 -52 145 -84 13 -24 23 -18 -115 -60 -55 -16
-160 -51 -232 -76 l-133 -46 -38 -62 c-61 -95 -159 -302 -149 -312 2 -2 57 19
123 47 192 82 490 189 526 189 39 0 -109 -278 -250 -469 -184 -251 -466 -521
-706 -678 -68 -45 -154 -88 -162 -81 -3 4 83 349 121 483 178 630 364 1017
543 1127 80 49 187 56 327 22z m2423 -3171 c40 -29 69 -78 94 -152 17 -54 22
-99 26 -238 6 -231 -17 -367 -115 -686 -42 -137 -36 -137 -110 8 -86 170 -175
426 -209 600 -39 204 -5 395 81 451 73 47 181 56 233 17z m-5108 -1434 c47 -5
89 -14 94 -19 11 -11 -90 -200 -190 -350 -181 -273 -333 -405 -544 -472 -102
-32 -316 -34 -398 -3 -99 36 -148 97 -163 200 -10 69 6 176 36 239 31 65 120
158 206 214 l64 42 5 -272 5 -273 80 1 c51 1 100 8 134 20 l54 19 2 296 c2
163 5 301 8 306 14 23 273 60 422 62 55 1 139 -4 185 -10z m5664 -1865 c41
-87 102 -279 125 -394 70 -357 45 -671 -75 -914 -94 -189 -245 -316 -378 -316
-77 0 -116 68 -142 249 -19 131 -13 252 22 411 32 144 115 396 185 560 70 163
217 460 228 460 5 0 20 -25 35 -56z"/>
</g>
</svg>
